<?xml version="1.0" standalone="no"?>
<!DOCTYPE svg PUBLIC "-//W3C//DTD SVG 1.1//EN" "http://www.w3.org/Graphics/SVG/1.1/DTD/svg11.dtd">
<svg version="1.1" xmlns="http://www.w3.org/2000/svg" viewBox="0 0 100 100" width="100" height="100"><!-- svg-source:excalidraw --><metadata></metadata><defs><style class="style-fonts">
      </style></defs><g stroke-linecap="round" transform="translate(10 10) rotate(0 40 40)"><path d="M33.83 0.85 C40.34 -0.97, 48.19 -0.03, 54.58 2.6 C60.98 5.23, 67.95 10.55, 72.21 16.63 C76.48 22.71, 79.77 31.66, 80.2 39.11 C80.63 46.56, 78.42 55.16, 74.8 61.35 C71.17 67.55, 64.94 73.35, 58.47 76.27 C52 79.18, 43.16 79.55, 36 78.86 C28.84 78.16, 21.03 76.64, 15.52 72.1 C10.01 67.57, 5.44 58.8, 2.96 51.67 C0.48 44.55, -0.98 36.05, 0.64 29.36 C2.26 22.67, 6.38 16.33, 12.67 11.55 C18.96 6.76, 33.3 2.54, 38.38 0.65 C43.47 -1.23, 43.17 -0.34, 43.21 0.25 M38.98 0.41 C45.84 -0.73, 54.87 1.14, 60.75 4.62 C66.63 8.1, 71.24 14.73, 74.26 21.32 C77.28 27.91, 79.3 36.77, 78.89 44.17 C78.47 51.56, 75.8 60.13, 71.76 65.68 C67.73 71.24, 61.51 75.19, 54.67 77.48 C47.82 79.77, 37.82 81.18, 30.68 79.44 C23.53 77.7, 16.55 72.36, 11.79 67.04 C7.03 61.72, 3.69 54.57, 2.13 47.54 C0.57 40.51, 0.2 31.52, 2.42 24.87 C4.64 18.22, 9.56 11.97, 15.43 7.65 C21.3 3.33, 33.67 0.2, 37.62 -1.05 C41.58 -2.3, 39 -0.64, 39.14 0.17" stroke="none" stroke-width="0" fill="#52d17c"></path><path d="M39.7 0.25 C46.52 -0.39, 55.74 1.71, 61.79 5.38 C67.83 9.04, 72.89 15.55, 75.95 22.25 C79.01 28.94, 80.9 38.31, 80.15 45.52 C79.39 52.74, 76.28 59.99, 71.43 65.56 C66.57 71.13, 57.91 76.72, 51.03 78.93 C44.14 81.15, 36.86 80.89, 30.13 78.87 C23.4 76.85, 15.73 72.16, 10.66 66.8 C5.59 61.44, 1.11 53.8, -0.27 46.72 C-1.66 39.63, -0.56 30.89, 2.34 24.31 C5.25 17.73, 10.33 11.4, 17.16 7.22 C23.99 3.04, 38.34 0.15, 43.31 -0.78 C48.27 -1.71, 47.09 0.8, 46.95 1.65 M30.2 0.82 C36.93 -1.11, 47.72 -0.25, 54.89 2.55 C62.06 5.35, 69.08 11.87, 73.23 17.62 C77.39 23.37, 79.43 30.13, 79.85 37.07 C80.27 44.01, 79.45 52.93, 75.75 59.24 C72.04 65.55, 64.28 71.53, 57.62 74.96 C50.96 78.38, 42.88 80.5, 35.79 79.77 C28.7 79.05, 20.7 75.02, 15.08 70.6 C9.45 66.17, 4.5 59.9, 2.04 53.21 C-0.42 46.53, -1.46 37.59, 0.33 30.49 C2.13 23.38, 7.39 15.71, 12.8 10.58 C18.21 5.45, 29.52 1.43, 32.8 -0.29 C36.08 -2.01, 32.76 -0.44, 32.49 0.28" stroke="#1e1e1e" stroke-width="2" fill="none"></path></g><g stroke-linecap="round"><g transform="translate(67.26779999999997 37.232200000000034) rotate(0 -17.134228402998502 13.098186162908007)" fill-rule="evenodd"><path d="M0.6 -0.94 C1.18 -0.85, 1.41 0.06, 1.27 0.74 C1.13 1.42, 4.03 -0.99, -0.25 3.13 C-4.54 7.25, -20.49 21.66, -24.42 25.45 C-28.34 29.24, -22.35 27.06, -23.8 25.88 C-25.26 24.69, -31.34 20.57, -33.15 18.35 C-34.95 16.14, -35.11 13.56, -34.64 12.57 C-34.17 11.58, -31.78 11.23, -30.34 12.44 C-28.91 13.65, -30.18 21.94, -26.03 19.84 C-21.88 17.74, -9.48 3.55, -5.45 -0.18 C-1.42 -3.92, -2.64 -2.42, -1.84 -2.54 C-1.05 -2.67, -0.82 -1.16, -0.68 -0.96" stroke="none" stroke-width="0" fill="white" fill-rule="evenodd"></path><path d="M-0.05 1.1 C0.05 1.42, -0.4 1.76, -0.34 2.33 C-0.29 2.9, 4.01 0.67, 0.29 4.51 C-3.43 8.36, -18.37 21.75, -22.67 25.41 C-26.98 29.07, -23.6 27.91, -25.53 26.48 C-27.45 25.05, -32.71 19.28, -34.23 16.84 C-35.74 14.4, -35.2 12.4, -34.59 11.82 C-33.99 11.25, -32.46 11.9, -30.6 13.38 C-28.74 14.86, -27.95 23.08, -23.43 20.69 C-18.92 18.3, -7.37 2.75, -3.51 -0.96 C0.36 -4.67, -0.85 -1.6, -0.22 -1.55 C0.41 -1.51, 0.14 -0.98, 0.27 -0.68 M-1.53 0.63 C-1 0.57, 1.6 0.16, 1.8 0.51 C2 0.85, 3.77 -1.64, -0.33 2.68 C-4.42 7.01, -18.9 22.37, -22.78 26.45 C-26.66 30.53, -21.39 28.86, -23.61 27.16 C-25.83 25.46, -34.37 18.51, -36.1 16.24 C-37.82 13.96, -34.81 13.98, -33.98 13.52 C-33.15 13.05, -32.64 12.45, -31.13 13.45 C-29.62 14.45, -29.66 21.49, -24.93 19.54 C-20.19 17.59, -6.92 5.2, -2.72 1.75 C1.48 -1.71, -0.02 -0.64, 0.26 -1.17 C0.55 -1.71, -1.14 -1.58, -1.01 -1.47" stroke="#1e1e1e" stroke-width="2" fill="none"></path></g></g><mask></mask></svg>