<?xml version="1.0" standalone="no"?>
<!DOCTYPE svg PUBLIC "-//W3C//DTD SVG 1.1//EN" "http://www.w3.org/Graphics/SVG/1.1/DTD/svg11.dtd">
<svg version="1.1" xmlns="http://www.w3.org/2000/svg" viewBox="0 0 107.53946171966561 112.31954398310916" width="107.53946171966561" height="112.31954398310916"><!-- svg-source:excalidraw --><metadata></metadata><defs><style class="style-fonts">
      </style></defs><g stroke-linecap="round"><g transform="translate(95.93307824254475 30.399001990037732) rotate(0 -42.16334738271195 24.37877589879696)" fill-rule="evenodd"><path d="M-0.18 -0.34 C-0.3 8.24, 1.94 41.95, 0.64 53.03 C-0.66 64.11, 4.05 63.98, -7.97 66.15 C-20 68.32, -59.14 66.53, -71.53 66.02 C-83.91 65.52, -80.59 65.37, -82.29 63.12 C-83.99 60.86, -81.76 63.98, -81.74 52.5 C-81.72 41.03, -82.57 5.57, -82.16 -5.73 C-81.75 -17.03, -90.33 -13.54, -79.29 -15.31 C-68.26 -17.09, -28.54 -17.65, -15.95 -16.37 C-3.36 -15.09, -6.78 -10.33, -3.77 -7.62 C-0.75 -4.91, 1.38 -1, 2.12 -0.11 C2.87 0.78, 1.43 -2.14, 0.72 -2.29" stroke="none" stroke-width="0" fill="#5f3dc4" fill-rule="evenodd"></path><path d="M-1.08 0.43 C-0.97 9.42, 0.48 44.11, -0.19 54.97 C-0.86 65.84, 6.75 63.59, -5.1 65.62 C-16.94 67.64, -58.8 67.38, -71.26 67.12 C-83.72 66.87, -77.55 66.3, -79.84 64.07 C-82.14 61.84, -84.14 65.48, -85.03 53.76 C-85.92 42.05, -86.4 5.59, -85.19 -6.22 C-83.99 -18.03, -89.24 -15.28, -77.8 -17.09 C-66.37 -18.9, -29.14 -18.5, -16.58 -17.08 C-4.02 -15.65, -5.15 -11.33, -2.45 -8.52 C0.24 -5.71, -1 -1.7, -0.41 -0.23 C0.17 1.24, 0.9 0.24, 1.05 0.28 M0.56 -0.39 C0.57 9.33, -0.22 45.9, -1.23 56.59 C-2.25 67.27, 6.6 62.31, -5.53 63.7 C-17.67 65.1, -61.49 65.35, -74.05 64.96 C-86.62 64.57, -79.22 62.89, -80.9 61.36 C-82.59 59.84, -83.45 67.33, -84.16 55.82 C-84.87 44.32, -86.11 4.05, -85.18 -7.64 C-84.25 -19.33, -90.32 -12.56, -78.58 -14.32 C-66.84 -16.08, -27.62 -19.62, -14.75 -18.22 C-1.88 -16.81, -3.78 -8.54, -1.37 -5.89 C1.05 -3.23, -0.52 -3.28, -0.26 -2.3 C0 -1.32, -0.02 -0.25, 0.18 0.01" stroke="#1e1e1e" stroke-width="2" fill="none"></path></g></g><mask></mask><g stroke-linecap="round"><g transform="translate(23.933078242544752 60.771601990037766) rotate(0 32.109061769252264 18.987930783255536)" fill-rule="evenodd"><path d="M-0.59 0.94 C9.45 0.92, 51.25 -8.45, 61.24 -2.22 C71.23 4.02, 69.19 31.89, 59.34 38.35 C49.49 44.82, 11.86 42.96, 2.13 36.58 C-7.59 30.2, 1.13 5.91, 1 0.08" stroke="none" stroke-width="0" fill="#f8f9fa" fill-rule="evenodd"></path><path d="M-0.19 0.14 C10.1 0.21, 50.39 -5.28, 60.62 0.82 C70.85 6.92, 71.16 30.71, 61.18 36.75 C51.21 42.79, 11.15 43.38, 0.78 37.07 C-9.59 30.77, -0.7 5.14, -1.03 -1.07 M-1.74 -0.83 C8.53 -1.14, 49.54 -6.81, 60 -0.88 C70.47 5.06, 70.8 28.81, 61.04 34.8 C51.28 40.79, 11.51 41.09, 1.44 35.08 C-8.64 29.08, 0.92 4.82, 0.62 -1.24" stroke="#1e1e1e" stroke-width="2" fill="none"></path></g></g><mask></mask><g stroke-linecap="round"><g transform="translate(23.933078242544752 59.271601990037766) rotate(0 30.166039601289015 0.3484661515492462)" fill-rule="evenodd"><path d="M1.35 1.59 C1.37 0.99, 0.5 -2.2, 1.13 -3.52 C1.77 -4.83, -3.55 -6.36, 5.14 -6.3 C13.82 -6.24, 44.17 -3.61, 53.24 -3.15 C62.32 -2.69, 58.75 -4.08, 59.6 -3.53 C60.45 -2.99, 57.89 -0.83, 58.33 0.12 C58.77 1.07, 71.67 1.38, 62.26 2.17 C52.84 2.96, 12.38 5.09, 1.84 4.86 C-8.71 4.62, -0.76 1.36, -1.01 0.74" stroke="none" stroke-width="0" fill="#c92a2a" fill-rule="evenodd"></path><path d="M0.62 0.82 C1.07 0.39, 1.73 -1.72, 2.5 -2.43 C3.28 -3.14, -3.38 -2.9, 5.28 -3.43 C13.94 -3.95, 45.77 -5.58, 54.47 -5.57 C63.17 -5.55, 56.49 -4.07, 57.49 -3.32 C58.49 -2.56, 60.11 -2.42, 60.48 -1.04 C60.85 0.34, 69.69 4.22, 59.71 4.96 C49.73 5.7, 10.61 4.05, 0.61 3.41 C-9.4 2.78, -0.4 1.67, -0.32 1.15 M-0.51 0.2 C-0.1 -0.58, 1.27 -3.26, 2.17 -4.16 C3.08 -5.06, -3.74 -5.06, 4.92 -5.2 C13.59 -5.35, 45.15 -5.39, 54.17 -5.02 C63.2 -4.65, 58.33 -4.01, 59.05 -3 C59.77 -1.99, 58.29 -0.11, 58.48 1.03 C58.67 2.18, 69.96 3, 60.2 3.86 C50.44 4.71, 9.69 6.74, -0.1 6.16 C-9.88 5.58, 1.7 1.41, 1.5 0.38" stroke="#1e1e1e" stroke-width="2" fill="none"></path></g></g><mask></mask><g stroke-linecap="round"><g transform="translate(78.28047824254475 12.771631990037804) rotate(0 -25.324824928286603 15.30795500476529)" fill-rule="evenodd"><path d="M-0.18 -0.34 C0.64 -0.62, 5.7 -5.05, 6.29 -0.15 C6.89 4.76, 3.78 23.75, 3.4 29.1 C3.01 34.45, 12.99 31.27, 3.96 31.94 C-5.06 32.61, -41.46 33.97, -50.77 33.12 C-60.08 32.27, -51.61 32.28, -51.9 26.82 C-52.19 21.36, -60.99 4.7, -52.51 0.36 C-44.03 -3.99, -9.82 0.61, -1.01 0.74 C7.8 0.88, 0.29 1.32, 0.34 1.17" stroke="none" stroke-width="0" fill="#343a40" fill-rule="evenodd"></path><path d="M1.18 0.75 C2.15 1.07, 5.86 -1.59, 6.43 2.73 C7 7.05, 5.38 21.78, 4.62 26.68 C3.86 31.59, 10.72 31.27, 1.85 32.15 C-7.02 33.03, -39.24 32.38, -48.62 31.96 C-58 31.54, -53.6 35.12, -54.45 29.61 C-55.3 24.1, -62.76 3.66, -53.74 -1.09 C-44.72 -5.83, -9.46 0.92, -0.33 1.15 C8.8 1.38, 0.91 0.47, 1.05 0.28 M0.35 0.1 C1.17 0.03, 4.79 -3.39, 5.89 1.17 C7 5.73, 7.71 22.11, 6.97 27.44 C6.24 32.78, 10.94 32.45, 1.47 33.18 C-8 33.91, -40.73 32.53, -49.84 31.81 C-58.95 31.08, -52.7 34, -53.19 28.81 C-53.68 23.62, -61.39 5.22, -52.78 0.66 C-44.16 -3.91, -10.3 1.69, -1.52 1.42 C7.26 1.15, -0.58 -0.65, -0.08 -0.95" stroke="#1e1e1e" stroke-width="2" fill="none"></path></g></g><mask></mask><g stroke-linecap="round"><g transform="translate(73.85307824254471 42.771601990037766) rotate(0 -13.889099318606839 -15.308555228144826)" fill-rule="evenodd"><path d="M-1.67 0.12 C-6.59 -0.21, -23.54 -2.17, -28.58 -2.33 C-33.62 -2.49, -30.66 -0.67, -31.89 -0.84 C-33.11 -1.01, -35.48 0.69, -35.93 -3.34 C-36.38 -7.37, -34.81 -20.74, -34.58 -25.02 C-34.34 -29.31, -35.45 -28.45, -34.51 -29.07 C-33.56 -29.68, -35.45 -28.19, -28.9 -28.73 C-22.34 -29.26, -0.34 -36.23, 4.8 -32.29 C9.94 -28.34, 2.15 -9.99, 1.93 -5.06 C1.71 -0.13, 3.82 -3.88, 3.49 -2.71 C3.15 -1.53, 0.86 1.27, -0.09 2.02 C-1.04 2.77, -2.02 2.37, -2.21 1.78" stroke="none" stroke-width="0" fill="#f8f9fa" fill-rule="evenodd"></path><path d="M0.78 1.07 C-4.73 0.77, -25.92 -0.67, -31.87 -1.07 C-37.82 -1.47, -34.49 -0.66, -34.92 -1.33 C-35.34 -2.01, -34.39 -1.05, -34.44 -5.12 C-34.49 -9.19, -35.42 -21.59, -35.21 -25.73 C-35 -29.87, -33.82 -29.45, -33.19 -29.97 C-32.56 -30.49, -37.82 -28.89, -31.43 -28.85 C-25.05 -28.8, -0.87 -33.85, 5.13 -29.72 C11.13 -25.58, 4.73 -8.78, 4.57 -4.04 C4.41 0.71, 4.78 -1.87, 4.18 -1.24 C3.59 -0.62, 1.64 -0.37, 0.99 -0.31 C0.35 -0.25, 0.66 -1.05, 0.31 -0.88 M-0.27 0.59 C-5.52 0.33, -24.31 0.02, -29.7 -0.09 C-35.1 -0.2, -31.94 0.66, -32.65 -0.09 C-33.36 -0.83, -33.86 -0.39, -33.94 -4.56 C-34.03 -8.73, -32.98 -21.2, -33.17 -25.1 C-33.37 -28.99, -35.49 -27.17, -35.12 -27.92 C-34.75 -28.67, -37.59 -29.26, -30.96 -29.59 C-24.33 -29.92, -1.04 -33.94, 4.65 -29.91 C10.33 -25.88, 3.05 -10.17, 3.15 -5.4 C3.26 -0.63, 5.61 -2.29, 5.3 -1.29 C4.98 -0.29, 2.31 0.67, 1.27 0.59 C0.23 0.51, -0.48 -1.7, -0.93 -1.77" stroke="#1e1e1e" stroke-width="2" fill="none"></path></g></g><mask></mask><g stroke-linecap="round"><g transform="translate(72.02217824254478 39.771601990037766) rotate(0 -2.938200912055038 -11.8220579483326)" fill-rule="evenodd"><path d="M-1.12 0.08 C-2.13 -0.16, -4.33 -1.33, -5.44 -1.66 C-6.55 -2, -7.03 1.22, -7.76 -1.93 C-8.48 -5.08, -9.72 -17.15, -9.76 -20.56 C-9.81 -23.96, -8.53 -21.76, -8.01 -22.36 C-7.49 -22.95, -8.36 -24.01, -6.65 -24.12 C-4.94 -24.24, 0.6 -23.17, 2.25 -23.04 C3.91 -22.92, 3.42 -26.61, 3.29 -23.37 C3.16 -20.12, 1.9 -7.37, 1.47 -3.57 C1.05 0.23, 1.12 -1.4, 0.75 -0.56 C0.37 0.27, -0.41 1.16, -0.78 1.45" stroke="none" stroke-width="0" fill="#343a40" fill-rule="evenodd"></path><path d="M-0.47 -0.49 C-1.78 -0.6, -6.12 0.19, -7.5 -0.17 C-8.88 -0.53, -8.48 0.8, -8.77 -2.64 C-9.05 -6.09, -9.36 -17.34, -9.22 -20.84 C-9.09 -24.34, -8.44 -23.2, -7.96 -23.63 C-7.47 -24.07, -7.86 -23.45, -6.33 -23.47 C-4.79 -23.49, -0.31 -24.04, 1.25 -23.76 C2.81 -23.49, 2.7 -25.35, 3.03 -21.82 C3.36 -18.28, 3.6 -6.17, 3.21 -2.56 C2.83 1.05, 1.24 -0.54, 0.73 -0.18 C0.22 0.18, 0.35 -0.49, 0.14 -0.4 M0.29 0.45 C-0.9 0.66, -5 0.96, -6.54 0.5 C-8.09 0.04, -8.56 1.17, -9 -2.29 C-9.44 -5.74, -9.26 -16.66, -9.18 -20.23 C-9.09 -23.8, -9.05 -23.14, -8.48 -23.71 C-7.91 -24.29, -7.19 -23.57, -5.76 -23.67 C-4.32 -23.77, -1.28 -24.6, 0.13 -24.31 C1.53 -24.03, 2.27 -25.51, 2.68 -21.96 C3.09 -18.41, 2.88 -6.6, 2.61 -3.01 C2.34 0.58, 1.43 -0.9, 1.06 -0.43 C0.69 0.05, 0.5 -0.28, 0.36 -0.16" stroke="#1e1e1e" stroke-width="2" fill="none"></path></g></g><mask></mask></svg>