<?xml version="1.0" standalone="no"?>
<!DOCTYPE svg PUBLIC "-//W3C//DTD SVG 1.1//EN" "http://www.w3.org/Graphics/SVG/1.1/DTD/svg11.dtd">
<svg version="1.1" xmlns="http://www.w3.org/2000/svg" viewBox="0 0 106.96061264642663 108.12039929552009" width="106.96061264642663" height="108.12039929552009"><!-- svg-source:excalidraw --><metadata></metadata><defs><style class="style-fonts">
      </style></defs><g stroke-linecap="round"><g transform="translate(57.06979407117478 29.975301243440185) rotate(0 -11.680341070078725 33.227695096224295)" fill-rule="evenodd"><path d="M-2.21 1.78 C0.03 2.44, 8.55 2.94, 12.29 6.09 C16.03 9.23, 26.28 10.99, 20.22 20.65 C14.17 30.32, -14.25 58.37, -24.05 64.09 C-33.85 69.81, -35.82 58.79, -38.57 54.98 C-41.33 51.17, -47.39 50.03, -40.6 41.23 C-33.8 32.44, -4.79 9.13, 2.21 2.22" stroke="none" stroke-width="0" fill="#f08c00" fill-rule="evenodd"></path><path d="M0.9 0.17 C2.89 1.69, 9.62 4.36, 13.04 7.97 C16.45 11.57, 27.24 12.42, 21.38 21.78 C15.52 31.15, -12.7 58.24, -22.14 64.13 C-31.59 70.02, -31.88 60.84, -35.3 57.14 C-38.72 53.43, -48.37 51.49, -42.66 41.89 C-36.95 32.29, -8.16 6.56, -1.05 -0.48 M-0.09 -0.78 C1.6 0.46, 8.36 2.61, 11.83 6.03 C15.29 9.45, 26.35 9.88, 20.7 19.74 C15.05 29.6, -12.59 58.84, -22.08 65.19 C-31.56 71.54, -32.42 61.4, -36.2 57.86 C-39.97 54.31, -50.59 53.3, -44.72 43.92 C-38.85 34.54, -8.24 9.05, -0.96 1.58" stroke="#1e1e1e" stroke-width="2" fill="none"></path></g></g><mask></mask><g stroke-linecap="round"><g transform="translate(11.332694071174728 91.4145512434402) rotate(0 11.969711660557778 -6.508068724709773)" fill-rule="evenodd"><path d="M-2.21 1.78 C-1.93 1.83, -0.62 1.89, 0.51 2.42 C1.63 2.95, 1 4.92, 4.52 4.95 C8.05 4.98, 22.31 6.75, 21.65 2.6 C21 -1.54, 3.79 -19.19, 0.58 -19.92 C-2.62 -20.65, 2.14 -5.47, 2.41 -1.78" stroke="none" stroke-width="0" fill="#ffa8a8" fill-rule="evenodd"></path><path d="M-0.49 0.36 C-0.33 1.08, 0.97 3.66, 1.91 4.51 C2.86 5.35, 1.32 5.61, 5.17 5.42 C9.01 5.23, 25.33 7.52, 24.99 3.36 C24.65 -0.8, 7.47 -18.87, 3.13 -19.51 C-1.21 -20.15, -0.53 -3.67, -1.05 -0.48 M1.45 -0.49 C1.39 -0.14, 0.59 1.49, 1.05 2.68 C1.52 3.88, 0.7 6.95, 4.22 6.69 C7.73 6.43, 22.54 5.53, 22.15 1.13 C21.75 -3.27, 5.57 -19.23, 1.84 -19.71 C-1.88 -20.19, 0.01 -5.36, -0.2 -1.77" stroke="#1e1e1e" stroke-width="2" fill="none"></path></g></g><mask></mask><g stroke-linecap="round"><g transform="translate(10.352924071174698 97.90565124344016) rotate(0 3.2311530343123422 -3.1763433024997028)" fill-rule="evenodd"><path d="M-0.66 1.23 C-0.71 0.38, -1.35 -4.97, -0.28 -5.48 C0.8 -5.99, 5.83 -2.7, 5.79 -1.84 C5.74 -0.98, 0.62 -0.61, -0.56 -0.32" stroke="none" stroke-width="0" fill="#343a40" fill-rule="evenodd"></path><path d="M0.05 0.17 C0.22 -0.94, -0.25 -6.36, 0.88 -6.52 C2 -6.68, 6.94 -1.83, 6.81 -0.79 C6.68 0.24, 1.29 -0.44, 0.1 -0.33 M-0.35 -0.05 C-0.22 -1.11, -0.64 -5.86, 0.55 -6.08 C1.73 -6.3, 6.8 -2.37, 6.75 -1.39 C6.7 -0.4, 1.33 -0.39, 0.23 -0.18" stroke="#1e1e1e" stroke-width="2" fill="none"></path></g></g><mask></mask><g stroke-linecap="round"><g transform="translate(73.99249407117475 13.052241243440164) rotate(0 5.925211699882027 14.829127316366112)" fill-rule="evenodd"><path d="M2.21 2.22 C2.49 2.22, 3.3 -1.49, 4.1 -1.79 C4.9 -2.08, 4.23 -2.06, 7.01 0.46 C9.8 2.97, 17.83 10.77, 20.8 13.3 C23.77 15.84, 24.98 14.14, 24.82 15.65 C24.67 17.17, 22.38 19.93, 19.87 22.39 C17.36 24.86, 13.26 29.72, 9.76 30.45 C6.26 31.19, 2.06 30.4, -1.12 26.8 C-4.31 23.19, -9.42 12.92, -9.34 8.81 C-9.27 4.7, -2.6 3.39, -0.68 2.14" stroke="none" stroke-width="0" fill="#ff6b6b" fill-rule="evenodd"></path><path d="M-0.35 -0.09 C0.26 -0.34, 2.49 -0.6, 3.81 -0.94 C5.12 -1.27, 4.83 -4.3, 7.56 -2.1 C10.28 0.1, 17.59 9.13, 20.16 12.25 C22.72 15.37, 22.87 14.96, 22.95 16.64 C23.03 18.31, 22.88 19.6, 20.64 22.27 C18.4 24.95, 13.56 32.36, 9.52 32.69 C5.49 33.03, -0.15 28.01, -3.58 24.29 C-7.02 20.56, -11.5 14.39, -11.09 10.33 C-10.68 6.27, -2.77 1.78, -1.1 -0.07 M1.67 -1.18 C2.2 -1.84, 2.54 -2.7, 3.43 -2.73 C4.31 -2.76, 4.24 -4.01, 6.98 -1.37 C9.71 1.27, 17.44 10.07, 19.85 13.1 C22.27 16.14, 21.16 15.4, 21.47 16.85 C21.79 18.3, 23.73 19.3, 21.75 21.79 C19.77 24.29, 13.43 31.51, 9.6 31.81 C5.76 32.1, 1.89 27.39, -1.27 23.55 C-4.43 19.72, -9.42 12.82, -9.36 8.81 C-9.3 4.79, -2.25 0.94, -0.91 -0.55" stroke="#1e1e1e" stroke-width="2" fill="none"></path></g></g><mask></mask><g stroke-linecap="round"><g transform="translate(63.385994071174764 23.658891243440166) rotate(0 7.594835782115297 13.566421731302938)" fill-rule="evenodd"><path d="M-0.99 -0.56 C2.38 3.21, 16.69 16.64, 18.96 21.08 C21.24 25.51, 16.48 28.8, 12.66 26.05 C8.84 23.3, -2.21 8.56, -3.95 4.59 C-5.69 0.62, 1.32 3.02, 2.21 2.22" stroke="none" stroke-width="0" fill="#d0bfff" fill-rule="evenodd"></path><path d="M1.09 0.62 C4.74 3.99, 19.45 15.68, 21.57 20.09 C23.68 24.5, 18.45 29.44, 13.79 27.1 C9.14 24.75, -3.99 10.37, -6.38 6.03 C-8.78 1.69, -1.46 1.92, -0.57 1.06 M0.2 -0.09 C3.75 3.38, 18.15 16.33, 20.8 21.04 C23.46 25.75, 20.63 30.51, 16.14 28.16 C11.64 25.82, -3.67 11.93, -6.14 6.96 C-8.61 1.99, 0.33 -0.54, 1.31 -1.65" stroke="#1e1e1e" stroke-width="2" fill="none"></path></g></g><mask></mask></svg>