<?xml version="1.0" standalone="no"?>
<!DOCTYPE svg PUBLIC "-//W3C//DTD SVG 1.1//EN" "http://www.w3.org/Graphics/SVG/1.1/DTD/svg11.dtd">
<svg version="1.1" xmlns="http://www.w3.org/2000/svg" viewBox="0 0 100.27978859355835 97.31690666150683" width="100.27978859355835" height="97.31690666150683"><!-- svg-source:excalidraw --><metadata></metadata><defs><style class="style-fonts">
      </style></defs><g stroke-linecap="round"><g transform="translate(77.13928423795005 79.993) rotate(0 -0.8185611968607418 -20.3478595625038)" fill-rule="evenodd"><path d="M0.38 0.41 C1.87 -0.16, 4.25 -1.03, 6.59 -2.62 C8.93 -4.2, 13.2 -3.61, 14.44 -9.1 C15.68 -14.59, 14.54 -30.7, 14.04 -35.53 C13.54 -40.36, 12.35 -36.84, 11.44 -38.09 C10.52 -39.35, 11.71 -42.38, 8.53 -43.08 C5.35 -43.77, -4.47 -42.35, -7.64 -42.27 C-10.81 -42.2, -9.3 -43.64, -10.48 -42.61 C-11.67 -41.58, -14.49 -41.34, -14.75 -36.1 C-15.01 -30.86, -12.6 -15.97, -12.04 -11.17 C-11.48 -6.36, -11.65 -8.98, -11.4 -7.28 C-11.16 -5.58, -12.25 -2.35, -10.55 -0.98 C-8.85 0.4, -2.67 1.09, -1.21 0.97 C0.25 0.84, -2.11 -1.88, -1.8 -1.72" stroke="none" stroke-width="0" fill="#7a41dc" fill-rule="evenodd"></path><path d="M-0.42 -0.17 C0.77 -0.52, 5.81 -0.65, 7.97 -2.06 C10.12 -3.47, 11.71 -2.97, 12.52 -8.61 C13.33 -14.24, 13.11 -31, 12.85 -35.88 C12.58 -40.76, 11.77 -37.19, 10.95 -37.9 C10.12 -38.61, 10.94 -39.64, 7.92 -40.16 C4.89 -40.67, -4.09 -41.04, -7.18 -40.99 C-10.27 -40.95, -9.65 -40.85, -10.63 -39.9 C-11.6 -38.95, -12.32 -39.92, -13.01 -35.31 C-13.7 -30.69, -14.78 -16.83, -14.78 -12.18 C-14.78 -7.54, -13.89 -8.8, -13.03 -7.43 C-12.17 -6.06, -11.8 -5.13, -9.62 -3.94 C-7.44 -2.75, -1.38 -1.08, 0.07 -0.28 C1.53 0.52, -0.75 0.98, -0.9 0.87 M1.56 -1.3 C2.5 -1.98, 5.2 -2.72, 6.89 -3.69 C8.58 -4.66, 10.71 -1.9, 11.7 -7.11 C12.7 -12.33, 12.66 -29.4, 12.84 -34.98 C13.03 -40.57, 13.44 -39.7, 12.79 -40.64 C12.14 -41.58, 12.28 -40.44, 8.97 -40.64 C5.67 -40.83, -3.64 -41.91, -7.04 -41.82 C-10.43 -41.72, -10.22 -40.94, -11.39 -40.07 C-12.56 -39.19, -13.57 -41.1, -14.06 -36.59 C-14.54 -32.09, -14.48 -18.01, -14.31 -13.05 C-14.14 -8.09, -14.15 -8.81, -13.04 -6.83 C-11.93 -4.86, -9.88 -2.13, -7.64 -1.2 C-5.4 -0.27, -1.16 -1.64, 0.38 -1.25 C1.91 -0.86, 1.81 0.65, 1.58 1.13" stroke="#1e1e1e" stroke-width="2" fill="none"></path></g></g><mask></mask><g stroke-linecap="round"><g transform="translate(77.13928423795005 79.993) rotate(0 -1.091073884543789 -20.94470718774076)" fill-rule="evenodd"><path d="M-1.63 0.38 C-0.02 -0.21, 7.55 -1.6, 10.05 -3.16 C12.54 -4.72, 12.82 -3.73, 13.33 -8.98 C13.85 -14.23, 13.45 -29.37, 13.15 -34.67 C12.85 -39.97, 12.54 -39.62, 11.54 -40.76 C10.55 -41.9, 10.04 -40.91, 7.18 -41.51 C4.33 -42.11, -2.45 -44.47, -5.59 -44.36 C-8.73 -44.25, -10.58 -42.36, -11.66 -40.85 C-12.74 -39.33, -11.79 -40.08, -12.05 -35.27 C-12.31 -30.46, -12.92 -17.07, -13.21 -11.97 C-13.51 -6.87, -14.32 -6.33, -13.83 -4.67 C-13.34 -3.01, -12.24 -2.53, -10.25 -2.03 C-8.25 -1.54, -3.69 -2.38, -1.87 -1.71 C-0.05 -1.05, 0.47 1.97, 0.66 1.94" stroke="none" stroke-width="0" fill="#3b148a80" fill-rule="evenodd"></path><path d="M-0.25 0.94 C1.17 0.52, 6.06 -0.96, 8.13 -2.67 C10.19 -4.38, 11.38 -4.03, 12.14 -9.33 C12.9 -14.63, 12.86 -29.72, 12.66 -34.47 C12.46 -39.23, 11.76 -36.88, 10.93 -37.84 C10.09 -38.8, 10.42 -39.59, 7.64 -40.23 C4.87 -40.86, -2.81 -41.68, -5.73 -41.65 C-8.66 -41.62, -8.42 -40.95, -9.93 -40.05 C-11.43 -39.16, -13.97 -40.94, -14.79 -36.28 C-15.6 -31.63, -15.15 -16.9, -14.84 -12.12 C-14.52 -7.35, -13.88 -9.11, -12.9 -7.64 C-11.92 -6.16, -10.95 -4.7, -8.97 -3.28 C-6.98 -1.86, -2.33 0.49, -0.97 0.87 C0.38 1.25, -0.83 -0.91, -0.85 -0.99 M1.81 0.38 C3.11 -0.39, 5.58 -3.18, 7.13 -4.62 C8.68 -6.05, 10.22 -2.91, 11.13 -8.22 C12.03 -13.53, 12.29 -31.11, 12.56 -36.5 C12.84 -41.89, 13.43 -39.84, 12.76 -40.55 C12.09 -41.26, 11.49 -40.37, 8.56 -40.75 C5.62 -41.13, -1.68 -42.9, -4.83 -42.82 C-7.98 -42.75, -8.95 -41.7, -10.32 -40.3 C-11.7 -38.9, -12.42 -38.98, -13.1 -34.43 C-13.78 -29.87, -14.45 -17.51, -14.4 -12.96 C-14.36 -8.41, -13.53 -8.67, -12.85 -7.15 C-12.16 -5.63, -12.24 -5.13, -10.3 -3.85 C-8.36 -2.58, -3.21 0.14, -1.22 0.5 C0.78 0.86, 1.69 -1.62, 1.65 -1.7" stroke="#1e1e1e" stroke-width="2" fill="none"></path></g></g><mask></mask><g stroke-linecap="round"><g transform="translate(25.13928423795005 79.993) rotate(0 -1.1305201788393333 -20.82116688580038)" fill-rule="evenodd"><path d="M1.83 -0.17 C3.59 -0.74, 7.17 -1.72, 8.94 -3.04 C10.71 -4.37, 11.72 -2.4, 12.44 -8.12 C13.16 -13.83, 13.63 -32.16, 13.26 -37.34 C12.88 -42.52, 10.86 -38.15, 10.19 -39.2 C9.52 -40.24, 12.06 -43.03, 9.23 -43.6 C6.41 -44.17, -3.74 -43.2, -6.77 -42.6 C-9.8 -42, -7.88 -41.1, -8.96 -40.02 C-10.04 -38.93, -12.11 -41.18, -13.22 -36.07 C-14.34 -30.97, -15.59 -14.42, -15.64 -9.36 C-15.69 -4.3, -14.31 -6.5, -13.53 -5.73 C-12.74 -4.95, -13.26 -5.99, -10.91 -4.71 C-8.56 -3.44, -1.11 1.47, 0.58 1.94 C2.28 2.41, -0.85 -1.88, -0.73 -1.9" stroke="none" stroke-width="0" fill="#9c6cfe" fill-rule="evenodd"></path><path d="M-0.09 0.33 C1.24 -0.39, 5.74 -2.02, 7.75 -3.39 C9.76 -4.77, 11.14 -2.75, 11.96 -7.92 C12.77 -13.09, 12.86 -29.42, 12.64 -34.42 C12.43 -39.42, 11.25 -36.84, 10.65 -37.92 C10.06 -39, 11.7 -40.24, 9.09 -40.89 C6.47 -41.54, -1.57 -41.78, -5.03 -41.81 C-8.5 -41.83, -10.06 -41.96, -11.7 -41.03 C-13.33 -40.1, -14.34 -41.01, -14.85 -36.22 C-15.35 -31.44, -15.14 -17.2, -14.71 -12.33 C-14.28 -7.45, -13.03 -8.67, -12.25 -6.97 C-11.46 -5.27, -11.9 -3.13, -10.01 -2.13 C-8.12 -1.13, -2.41 -1.41, -0.93 -0.99 C0.55 -0.56, -1.32 0.2, -1.14 0.39 M-1.6 -0.54 C-0.45 -1.18, 4.48 -0.53, 6.55 -2.06 C8.63 -3.59, 9.85 -4.01, 10.84 -9.73 C11.84 -15.46, 12.28 -31.26, 12.53 -36.41 C12.78 -41.57, 13.25 -39.77, 12.34 -40.66 C11.44 -41.55, 10.4 -41.36, 7.1 -41.75 C3.81 -42.15, -4.68 -43.05, -7.42 -43.06 C-10.17 -43.06, -8.41 -43.25, -9.37 -41.79 C-10.33 -40.34, -12.38 -39.7, -13.19 -34.33 C-14 -28.97, -14.43 -14.32, -14.21 -9.62 C-13.98 -4.92, -12.85 -7.39, -11.85 -6.14 C-10.85 -4.88, -10.02 -3.35, -8.24 -2.1 C-6.45 -0.86, -2.72 0.91, -1.15 1.33 C0.43 1.75, 0.93 0.67, 1.22 0.41" stroke="#1e1e1e" stroke-width="2" fill="none"></path></g></g><mask></mask><g stroke-linecap="round"><g transform="translate(25.13928423795005 79.993) rotate(0 -1.1880948480425104 -21.059322760640896)" fill-rule="evenodd"><path d="M0.72 -0.04 C1.76 -0.38, 6.08 -0.39, 8.05 -2.18 C10.02 -3.97, 11.91 -5.19, 12.55 -10.79 C13.2 -16.39, 11.96 -30.69, 11.91 -35.77 C11.86 -40.86, 12.89 -40.28, 12.25 -41.29 C11.6 -42.3, 10.78 -41.76, 8.06 -41.84 C5.34 -41.92, -1.04 -41.94, -4.07 -41.77 C-7.1 -41.6, -8.21 -42.21, -10.14 -40.82 C-12.07 -39.44, -14.78 -38.53, -15.65 -33.46 C-16.51 -28.4, -15.58 -14.6, -15.34 -10.42 C-15.09 -6.24, -15.34 -9.97, -14.19 -8.41 C-13.04 -6.85, -10.69 -2.15, -8.46 -1.06 C-6.22 0.03, -2.43 -2.37, -0.8 -1.89 C0.82 -1.41, 1.24 1.52, 1.3 1.83" stroke="none" stroke-width="0" fill="#3b148a80" fill-rule="evenodd"></path><path d="M-0.47 -0.39 C0.8 -0.78, 5.5 -0.74, 7.56 -1.99 C9.63 -3.23, 11.13 -2.45, 11.94 -7.87 C12.74 -13.28, 12.34 -29.37, 12.37 -34.49 C12.4 -39.61, 12.53 -37.49, 12.1 -38.58 C11.67 -39.67, 12.94 -40.34, 9.79 -41.04 C6.64 -41.74, -3.22 -42.8, -6.81 -42.79 C-10.4 -42.77, -10.44 -42.03, -11.76 -40.97 C-13.08 -39.91, -14.33 -41.32, -14.72 -36.43 C-15.1 -31.55, -14.29 -16.77, -14.06 -11.67 C-13.82 -6.56, -13.97 -7.11, -13.29 -5.83 C-12.61 -4.55, -11.98 -5.02, -9.97 -3.99 C-7.95 -2.95, -2.9 -0.3, -1.21 0.4 C0.48 1.09, 0.12 0.23, 0.19 0.2 M1.48 -1.65 C3.16 -2.38, 8.38 -2.24, 9.93 -3.58 C11.49 -4.91, 10.45 -4.16, 10.81 -9.65 C11.18 -15.14, 12.11 -31.8, 12.12 -36.53 C12.13 -41.25, 11.55 -37.1, 10.89 -38.01 C10.23 -38.92, 11.06 -41.51, 8.17 -41.99 C5.28 -42.47, -3.53 -40.94, -6.47 -40.89 C-9.4 -40.84, -8.37 -42.74, -9.46 -41.7 C-10.55 -40.66, -12.37 -39.56, -13 -34.65 C-13.62 -29.75, -13.14 -16.7, -13.21 -12.27 C-13.29 -7.83, -14.28 -9.88, -13.44 -8.05 C-12.6 -6.21, -10.14 -2.57, -8.17 -1.27 C-6.19 0.04, -2.87 -0.45, -1.58 -0.22 C-0.29 0.01, -0.54 0.12, -0.42 0.11" stroke="#1e1e1e" stroke-width="2" fill="none"></path></g></g><mask></mask><g stroke-linecap="round"><g transform="translate(41.194484237950064 38) rotate(0 8.682430641539327 24.381500911668468)" fill-rule="evenodd"><path d="M-0.17 0.82 C-1.01 0.71, -2.78 -1.55, -4.35 -0.69 C-5.92 0.16, -9.13 0.44, -9.61 5.95 C-10.09 11.47, -7.72 26.99, -7.22 32.41 C-6.71 37.83, -8.21 36.25, -6.58 38.47 C-4.95 40.7, -0.27 44.27, 2.58 45.76 C5.42 47.25, 8.06 47.11, 10.49 47.41 C12.92 47.71, 14.91 48.79, 17.15 47.56 C19.38 46.34, 22.59 42.46, 23.91 40.05 C25.23 37.63, 24.4 38.38, 25.06 33.07 C25.72 27.76, 28.27 13.81, 27.85 8.18 C27.44 2.54, 23.82 0.32, 22.56 -0.74 C21.3 -1.79, 24.13 1.71, 20.3 1.83 C16.47 1.94, 3.33 -0.04, -0.42 -0.05" stroke="none" stroke-width="0" fill="#bd96ff" fill-rule="evenodd"></path><path d="M-0.66 1.01 C-1.41 1.45, -3.55 1.19, -4.97 2.23 C-6.38 3.27, -8.75 1.75, -9.15 7.23 C-9.54 12.72, -8.08 29.78, -7.36 35.12 C-6.64 40.46, -6.05 37.66, -4.85 39.27 C-3.65 40.87, -2.45 43.41, -0.16 44.74 C2.12 46.08, 5.82 47.29, 8.86 47.26 C11.9 47.24, 15.36 46.01, 18.08 44.6 C20.8 43.19, 23.87 40.29, 25.19 38.8 C26.5 37.31, 25.77 41.24, 25.96 35.65 C26.15 30.06, 26.98 10.94, 26.34 5.25 C25.71 -0.43, 23.34 2.4, 22.15 1.55 C20.96 0.71, 23.01 0.43, 19.19 0.2 C15.36 -0.03, 2.25 0.23, -0.8 0.19 M1.2 0.5 C0.88 0.66, -1.29 -0.15, -2.61 0.67 C-3.94 1.49, -6.04 -0.54, -6.75 5.41 C-7.46 11.37, -7.03 30.68, -6.85 36.4 C-6.68 42.12, -6.99 37.99, -5.69 39.75 C-4.39 41.51, -1.53 45.37, 0.95 46.94 C3.43 48.52, 6.53 49.72, 9.17 49.19 C11.81 48.66, 14.38 45.75, 16.79 43.76 C19.19 41.77, 22.01 38.62, 23.59 37.27 C25.17 35.92, 25.82 40.91, 26.25 35.65 C26.69 30.39, 26.62 11.44, 26.22 5.72 C25.81 0, 24.92 2.38, 23.8 1.34 C22.68 0.3, 23.19 -0.31, 19.51 -0.52 C15.84 -0.73, 4.71 0.12, 1.74 0.09" stroke="#1e1e1e" stroke-width="2" fill="none"></path></g></g><mask></mask><g stroke-linecap="round"><g transform="translate(41.194484237950064 38) rotate(0 8.436529043970609 24.197768531392683)" fill-rule="evenodd"><path d="M-0.06 -1.85 C-0.98 -1.84, -4.45 -0.08, -5.7 0.87 C-6.95 1.83, -7.11 -1.68, -7.55 3.87 C-8 9.41, -9.01 28.27, -8.39 34.17 C-7.78 40.08, -5.51 37.51, -3.88 39.3 C-2.25 41.1, -0.59 43.17, 1.4 44.95 C3.39 46.74, 5.39 49.76, 8.06 50.02 C10.74 50.28, 14.92 48.62, 17.45 46.51 C19.98 44.4, 21.57 39, 23.25 37.37 C24.92 35.74, 26.98 42.23, 27.51 36.72 C28.05 31.22, 26.96 9.97, 26.47 4.34 C25.98 -1.28, 25.9 3.72, 24.59 2.99 C23.27 2.26, 23.05 0.15, 18.58 -0.05 C14.11 -0.26, 0.65 1.49, -2.2 1.74" stroke="none" stroke-width="0" fill="#e362f8" fill-rule="evenodd"></path><path d="M-0.68 1.07 C-1.44 1.26, -4.07 1.24, -5.24 2.15 C-6.41 3.07, -7.46 1.11, -7.7 6.57 C-7.94 12.04, -6.84 29.68, -6.66 34.97 C-6.48 40.25, -7.69 36.65, -6.62 38.29 C-5.54 39.93, -2.82 43.34, -0.22 44.81 C2.38 46.27, 5.83 46.98, 8.99 47.05 C12.15 47.13, 16.21 46.44, 18.73 45.26 C21.26 44.08, 22.93 41.86, 24.14 39.95 C25.36 38.04, 25.68 39.35, 26 33.8 C26.32 28.24, 26.48 12.04, 26.06 6.63 C25.64 1.23, 24.79 2.43, 23.48 1.36 C22.17 0.28, 21.96 0.43, 18.2 0.19 C14.44 -0.05, 3.87 -0.05, 0.9 -0.08 M1.17 0.58 C0.83 0.98, -1.46 -0.69, -3.03 0.55 C-4.59 1.8, -7.13 2.13, -8.2 8.07 C-9.27 14, -10.02 31.13, -9.44 36.16 C-8.87 41.2, -6.45 36.45, -4.73 38.26 C-3.01 40.07, -1.49 45.27, 0.86 47.04 C3.21 48.81, 6.55 49.25, 9.37 48.87 C12.19 48.49, 15.07 46.41, 17.78 44.77 C20.5 43.13, 24.24 40.4, 25.66 39.02 C27.08 37.64, 26.3 41.69, 26.32 36.49 C26.34 31.29, 26.47 13.73, 25.78 7.83 C25.09 1.92, 23.46 2.43, 22.16 1.04 C20.87 -0.35, 21.59 -0.31, 18.01 -0.54 C14.43 -0.77, 3.52 -0.31, 0.66 -0.32" stroke="#1e1e1e" stroke-width="2" fill="none"></path></g></g><mask></mask><g stroke-linecap="round" transform="translate(66.69448423795006 14) rotate(0 10 10)"><path d="M11.36 0.5 C13.32 0.74, 15.93 2.15, 17.35 3.61 C18.77 5.06, 19.81 7.22, 19.87 9.24 C19.93 11.27, 18.94 14, 17.71 15.75 C16.48 17.49, 14.53 19.24, 12.5 19.71 C10.48 20.17, 7.49 19.59, 5.57 18.54 C3.66 17.49, 1.85 15.3, 1.01 13.41 C0.18 11.53, -0.09 9.19, 0.57 7.22 C1.22 5.24, 3.12 2.68, 4.95 1.56 C6.77 0.45, 10.26 0.72, 11.5 0.52 C12.75 0.32, 12.42 0.27, 12.4 0.38 M11.06 -0.44 C13 -0.49, 15.44 1.52, 16.89 3.11 C18.33 4.7, 19.63 7.11, 19.73 9.11 C19.84 11.1, 18.75 13.42, 17.51 15.07 C16.27 16.73, 14.26 18.47, 12.3 19.04 C10.34 19.6, 7.62 19.19, 5.74 18.47 C3.86 17.75, 1.95 16.57, 1 14.7 C0.05 12.84, -0.51 9.32, 0.03 7.26 C0.58 5.21, 2.57 3.59, 4.26 2.36 C5.95 1.13, 9.17 0.19, 10.16 -0.11 C11.14 -0.41, 10.14 0.39, 10.15 0.55" stroke="none" stroke-width="0" fill="#7a41dc"></path><path d="M11.11 -0.19 C13.07 -0.23, 15.43 1.24, 16.85 2.78 C18.28 4.32, 19.53 6.89, 19.67 9.08 C19.81 11.27, 18.93 14.22, 17.7 15.93 C16.48 17.64, 14.27 18.87, 12.31 19.33 C10.36 19.78, 7.96 19.59, 5.99 18.64 C4.01 17.68, 1.36 15.49, 0.46 13.6 C-0.45 11.72, -0.12 9.37, 0.55 7.33 C1.22 5.3, 2.66 2.53, 4.48 1.38 C6.3 0.24, 10.29 0.62, 11.49 0.47 C12.7 0.33, 11.76 0.41, 11.72 0.51 M10.4 -0.05 C12.48 -0.04, 15.68 0.68, 17.24 2.17 C18.81 3.67, 19.52 6.64, 19.79 8.9 C20.07 11.17, 20.02 14.01, 18.88 15.77 C17.73 17.53, 15.18 18.81, 12.93 19.47 C10.68 20.12, 7.42 20.52, 5.37 19.7 C3.31 18.88, 1.54 16.69, 0.61 14.56 C-0.33 12.43, -0.86 8.94, -0.22 6.92 C0.42 4.9, 2.63 3.67, 4.43 2.42 C6.24 1.18, 9.48 -0.27, 10.61 -0.55 C11.74 -0.82, 11.21 0.53, 11.22 0.79" stroke="#1e1e1e" stroke-width="2" fill="none"></path></g><g stroke-linecap="round" transform="translate(14.694484237950064 14) rotate(0 10 10)"><path d="M8.86 0.29 C10.86 -0.19, 13.72 0.16, 15.49 1.24 C17.27 2.33, 18.81 4.68, 19.5 6.81 C20.19 8.94, 20.42 12.02, 19.62 14.01 C18.82 16, 16.65 17.84, 14.69 18.75 C12.73 19.65, 9.99 19.85, 7.86 19.43 C5.74 19.02, 3.22 17.91, 1.94 16.23 C0.67 14.55, 0.11 11.49, 0.21 9.35 C0.3 7.21, 0.9 4.95, 2.52 3.39 C4.14 1.82, 8.68 0.48, 9.92 -0.04 C11.17 -0.57, 10.02 0, 10.01 0.22 M12.28 0.48 C14.21 0.94, 16.72 2.53, 17.89 4.13 C19.06 5.73, 19.46 8.04, 19.29 10.08 C19.12 12.12, 18.27 14.81, 16.88 16.36 C15.49 17.9, 13.04 18.97, 10.97 19.37 C8.89 19.76, 6.25 19.88, 4.43 18.75 C2.61 17.62, 0.66 14.62, 0.06 12.57 C-0.53 10.52, 0.06 8.4, 0.87 6.44 C1.68 4.49, 3.12 1.81, 4.94 0.84 C6.75 -0.13, 10.61 0.71, 11.76 0.62 C12.9 0.53, 11.77 0.28, 11.83 0.3" stroke="none" stroke-width="0" fill="#9c6cfe"></path><path d="M12.14 0.04 C14.08 0.43, 16.57 2.16, 17.81 3.95 C19.05 5.75, 19.71 8.7, 19.58 10.81 C19.45 12.92, 18.41 15.14, 17.04 16.61 C15.67 18.07, 13.54 19.4, 11.36 19.59 C9.17 19.79, 5.76 18.92, 3.95 17.79 C2.15 16.65, 1.04 14.82, 0.54 12.79 C0.04 10.75, 0.1 7.46, 0.97 5.55 C1.84 3.65, 3.75 2.19, 5.74 1.36 C7.73 0.54, 11.66 0.7, 12.94 0.6 C14.21 0.5, 13.4 0.64, 13.39 0.77 M8.32 -0.55 C10.34 -1.07, 12.76 -0.1, 14.71 1.08 C16.66 2.26, 19.17 4.51, 20.01 6.51 C20.85 8.51, 20.64 10.99, 19.75 13.1 C18.86 15.22, 16.63 18.03, 14.69 19.21 C12.74 20.38, 10.19 20.7, 8.06 20.17 C5.93 19.64, 3.19 17.58, 1.88 16.01 C0.57 14.44, 0.18 12.89, 0.2 10.74 C0.23 8.59, 0.64 4.77, 2.02 3.1 C3.41 1.44, 7.52 1.2, 8.52 0.74 C9.52 0.28, 8.18 0.2, 8.03 0.36" stroke="#1e1e1e" stroke-width="2" fill="none"></path></g><g stroke-linecap="round" transform="translate(38.694484237950064 10) rotate(0 12 12)"><path d="M14.19 -0.26 C16.62 -0.05, 19.51 1.93, 21.23 4 C22.94 6.07, 24.47 9.55, 24.5 12.15 C24.52 14.76, 23.09 17.73, 21.37 19.64 C19.65 21.55, 16.75 23.1, 14.16 23.6 C11.57 24.1, 8.07 23.92, 5.85 22.65 C3.62 21.38, 1.71 18.4, 0.82 15.96 C-0.07 13.52, -0.44 10.45, 0.5 8.03 C1.45 5.61, 4.18 2.72, 6.5 1.44 C8.82 0.15, 12.98 0.41, 14.42 0.32 C15.86 0.22, 15.07 0.67, 15.15 0.88 M9.85 0.12 C12.16 -0.56, 15.26 -0.2, 17.46 1.02 C19.66 2.24, 22.1 4.98, 23.05 7.43 C24.01 9.87, 24.05 13.08, 23.19 15.67 C22.34 18.26, 20.21 21.63, 17.92 22.96 C15.63 24.29, 11.98 24.12, 9.44 23.65 C6.9 23.18, 4.38 22.14, 2.69 20.14 C0.99 18.15, -0.64 14.3, -0.73 11.69 C-0.81 9.07, 0.5 6.43, 2.2 4.47 C3.9 2.52, 8.18 0.72, 9.49 -0.04 C10.79 -0.81, 9.78 -0.33, 10.03 -0.12" stroke="none" stroke-width="0" fill="#bd96ff"></path><path d="M10.26 -0.13 C12.65 -0.52, 15.98 0.63, 18.16 2.01 C20.35 3.39, 22.49 5.75, 23.37 8.14 C24.24 10.53, 24.46 14.01, 23.4 16.36 C22.34 18.71, 19.34 21, 17.01 22.23 C14.69 23.46, 11.86 24.32, 9.44 23.76 C7.02 23.2, 4.04 20.87, 2.48 18.87 C0.93 16.86, -0.03 14.21, 0.1 11.72 C0.22 9.23, 1.35 5.9, 3.21 3.94 C5.07 1.99, 9.76 0.61, 11.24 -0.01 C12.73 -0.63, 12.16 0.07, 12.11 0.23 M11.49 -0.18 C14 -0.27, 18.01 1.06, 20.1 2.65 C22.2 4.25, 23.72 6.78, 24.05 9.39 C24.39 12, 23.45 15.97, 22.12 18.31 C20.79 20.66, 18.49 22.69, 16.08 23.45 C13.68 24.21, 10.03 23.62, 7.68 22.87 C5.33 22.11, 3.28 21.09, 1.99 18.89 C0.69 16.7, -0.5 12.23, -0.1 9.68 C0.31 7.13, 2.48 5.21, 4.42 3.6 C6.36 1.98, 10.43 0.46, 11.52 -0.01 C12.61 -0.48, 10.88 0.5, 10.98 0.78" stroke="#1e1e1e" stroke-width="2" fill="none"></path></g></svg>