<?xml version="1.0" standalone="no"?>
<!DOCTYPE svg PUBLIC "-//W3C//DTD SVG 1.1//EN" "http://www.w3.org/Graphics/SVG/1.1/DTD/svg11.dtd">
<svg version="1.1" xmlns="http://www.w3.org/2000/svg" viewBox="0 0 102.96192069251131 107.06700171760679" width="102.96192069251131" height="107.06700171760679"><!-- svg-source:excalidraw --><metadata></metadata><defs><style class="style-fonts">
      </style></defs><g stroke-linecap="round"><g transform="translate(66.85086360680245 56.32966175514616) rotate(0 -22.39301956062124 15.595086497971465)" fill-rule="evenodd"><path d="M2.23 -0.39 C2.9 -0.36, 3.11 1.1, 4.35 2.06 C5.58 3.03, 8.51 3.36, 9.62 5.41 C10.74 7.46, 11.67 11.94, 11.07 14.36 C10.46 16.79, 8.75 17.6, 6.02 19.97 C3.29 22.35, -0.4 26.91, -5.31 28.62 C-10.21 30.32, -17.52 30.41, -23.4 30.2 C-29.29 29.99, -35.86 28.99, -40.61 27.35 C-45.37 25.71, -49.37 22.28, -51.93 20.36 C-54.48 18.44, -55.3 18.27, -55.94 15.83 C-56.57 13.39, -56.27 7.93, -55.75 5.71 C-55.23 3.48, -54.04 3.63, -52.81 2.49 C-51.58 1.35, -57.53 -0.42, -48.36 -1.13 C-39.2 -1.84, -6.24 -1.58, 2.18 -1.76" stroke="none" stroke-width="0" fill="#f08af4" fill-rule="evenodd"></path><path d="M1.17 0.64 C1.92 0.81, 4.09 0.4, 5.16 1.51 C6.23 2.63, 6.78 4.92, 7.58 7.31 C8.38 9.7, 10.33 13.74, 9.96 15.86 C9.6 17.99, 7.79 17.96, 5.41 20.05 C3.02 22.14, 0.25 26.29, -4.33 28.41 C-8.91 30.54, -15.79 32.67, -22.06 32.81 C-28.32 32.95, -36.7 31.12, -41.92 29.25 C-47.14 27.38, -51.24 24.01, -53.37 21.58 C-55.5 19.15, -54.56 17.07, -54.69 14.66 C-54.82 12.26, -54.98 9.33, -54.14 7.14 C-53.3 4.95, -51.13 2.79, -49.64 1.51 C-48.16 0.24, -53.35 -0.23, -45.23 -0.5 C-37.12 -0.77, -8.36 -0.28, -0.95 -0.12 M0.33 -0.08 C0.91 -0.32, 2.95 -1.36, 4.54 -0.46 C6.13 0.44, 9.46 2.95, 9.89 5.34 C10.33 7.73, 7.63 11.42, 7.14 13.88 C6.65 16.33, 8.72 17.82, 6.97 20.07 C5.21 22.31, 1.84 25.38, -3.41 27.35 C-8.67 29.31, -18.05 31.55, -24.57 31.88 C-31.1 32.21, -38.04 31.2, -42.58 29.32 C-47.11 27.45, -49.91 23.16, -51.78 20.63 C-53.66 18.1, -53.55 16.18, -53.84 14.14 C-54.13 12.11, -54.08 10.56, -53.54 8.41 C-53 6.26, -52.07 2.91, -50.59 1.24 C-49.1 -0.43, -53.29 -1.32, -44.6 -1.58 C-35.92 -1.85, -5.79 -0.66, 1.51 -0.37" stroke="#1e1e1e" stroke-width="2" fill="none"></path></g></g><mask></mask><g stroke-linecap="round"><g transform="translate(66.85086360680245 56.32966175514616) rotate(0 -22.431884825436768 15.841999093829656)" fill-rule="evenodd"><path d="M-0.2 0.83 C0.35 0.91, 3.64 -0.86, 5.49 0.03 C7.34 0.93, 10.44 3.86, 10.9 6.19 C11.36 8.51, 9.3 11.55, 8.26 14 C7.22 16.45, 6.69 18.8, 4.68 20.91 C2.68 23.02, 0.5 25, -3.78 26.66 C-8.06 28.32, -14.63 30.65, -21 30.89 C-27.36 31.12, -36.5 29.58, -41.95 28.07 C-47.4 26.55, -51.37 24.16, -53.7 21.8 C-56.03 19.44, -55.37 16.21, -55.92 13.89 C-56.46 11.57, -57.45 10.16, -56.95 7.87 C-56.45 5.57, -55.09 1.7, -52.9 0.1 C-50.72 -1.5, -53 -1.38, -43.82 -1.76 C-34.65 -2.15, -5.3 -2.43, 2.15 -2.2" stroke="none" stroke-width="0" fill="#e362f8" fill-rule="evenodd"></path><path d="M0.62 0.28 C1 0.5, 1.91 0.7, 3.44 1.93 C4.97 3.17, 9.1 5.66, 9.8 7.69 C10.5 9.71, 8.34 11.91, 7.65 14.08 C6.96 16.25, 7.34 18.17, 5.66 20.7 C3.98 23.24, 2.23 27.25, -2.43 29.27 C-7.09 31.28, -15.48 32.78, -22.31 32.79 C-29.13 32.79, -38.37 31.32, -43.39 29.29 C-48.42 27.26, -50.63 22.96, -52.45 20.63 C-54.27 18.3, -54.08 17.62, -54.31 15.33 C-54.53 13.04, -54.53 9.33, -53.78 6.89 C-53.02 4.46, -50.92 1.9, -49.78 0.73 C-48.64 -0.44, -55.12 -0.07, -46.95 -0.12 C-38.78 -0.16, -8.61 0.31, -0.76 0.48 M-0.51 -0.61 C0.12 -0.8, 3.89 -0.91, 5.58 0.18 C7.27 1.27, 9.34 3.47, 9.62 5.91 C9.9 8.35, 7.64 12.28, 7.27 14.81 C6.89 17.34, 9.26 18.76, 7.35 21.07 C5.45 23.37, 0.6 26.85, -4.18 28.65 C-8.95 30.45, -15.13 31.73, -21.29 31.85 C-27.46 31.98, -35.7 31.49, -41.16 29.38 C-46.62 27.27, -52.03 21.55, -54.04 19.18 C-56.06 16.81, -53.43 17.01, -53.26 15.15 C-53.08 13.29, -53.4 10.55, -52.99 8.03 C-52.58 5.51, -51.75 1.55, -50.79 0.05 C-49.83 -1.46, -55.98 -1.08, -47.21 -1 C-38.45 -0.92, -6.17 0.23, 1.79 0.54" stroke="#1e1e1e" stroke-width="2" fill="none"></path></g></g><mask></mask><g stroke-linecap="round"><g transform="translate(66.85086360680245 56.32966175514616) rotate(0 -23.283969723557618 16.31094929349524)" fill-rule="evenodd"><path d="M0.95 -1.2 C2.11 -1.2, 5.57 -0.36, 6.76 0.81 C7.96 1.98, 8.07 3.47, 8.09 5.82 C8.12 8.18, 7.24 12.75, 6.92 14.94 C6.61 17.13, 7.6 16.88, 6.21 18.95 C4.83 21.02, 3.39 25.24, -1.37 27.35 C-6.13 29.46, -15.28 31.24, -22.34 31.6 C-29.39 31.96, -38.5 31.46, -43.72 29.5 C-48.95 27.55, -51.45 22.1, -53.68 19.86 C-55.91 17.62, -56.55 18.45, -57.11 16.05 C-57.67 13.65, -58.5 8.24, -57.04 5.48 C-55.58 2.71, -50.56 0.75, -48.36 -0.53 C-46.16 -1.81, -52.06 -2.23, -43.85 -2.2 C-35.64 -2.18, -6.48 -0.96, 0.88 -0.38" stroke="none" stroke-width="0" fill="#4e44db" fill-rule="evenodd"></path><path d="M-1.1 0.71 C-0.26 1.04, 4.23 1.44, 5.66 2.31 C7.09 3.17, 7.11 3.83, 7.48 5.9 C7.86 7.97, 7.89 12.12, 7.9 14.73 C7.91 17.34, 9.32 19.14, 7.56 21.56 C5.79 23.98, 2.54 27.37, -2.68 29.25 C-7.9 31.13, -17.15 32.98, -23.78 32.83 C-30.41 32.68, -37.76 30.26, -42.48 28.34 C-47.19 26.42, -50.16 23.5, -52.07 21.29 C-53.98 19.08, -53.64 17.61, -53.94 15.08 C-54.25 12.55, -54.32 8.44, -53.91 6.11 C-53.5 3.78, -52.68 2.05, -51.49 1.11 C-50.3 0.17, -55.36 0.51, -46.76 0.48 C-38.15 0.45, -7.83 1.03, 0.14 0.91 M0.52 0.03 C1.25 0.03, 3.77 -0.38, 5.3 0.75 C6.84 1.89, 9.36 4.34, 9.75 6.85 C10.14 9.36, 8.18 13.22, 7.65 15.81 C7.13 18.4, 8.62 20.23, 6.59 22.37 C4.55 24.5, 0.46 27.03, -4.56 28.62 C-9.58 30.21, -17.06 32.03, -23.54 31.91 C-30.01 31.8, -38.43 29.88, -43.42 27.93 C-48.41 25.98, -51.3 22.38, -53.46 20.19 C-55.62 18, -56.41 17, -56.37 14.77 C-56.32 12.55, -54.3 9.19, -53.19 6.83 C-52.09 4.47, -50.78 1.78, -49.74 0.63 C-48.7 -0.53, -55.14 -0.19, -46.93 -0.09 C-38.72 0, -8.03 1.33, -0.49 1.2" stroke="#1e1e1e" stroke-width="2" fill="none"></path></g></g><mask></mask><g stroke-linecap="round"><g transform="translate(66.85086360680245 56.32966175514616) rotate(0 -22.960328832363388 15.696384519912158)" fill-rule="evenodd"><path d="M2.22 -0.42 C2.72 -0.15, 3.2 -0.75, 3.96 0.44 C4.71 1.64, 6.01 4.67, 6.76 6.76 C7.51 8.85, 8.14 10.83, 8.45 12.98 C8.76 15.13, 10.48 17.13, 8.62 19.64 C6.76 22.15, 2.74 25.83, -2.71 28.06 C-8.17 30.3, -17.27 33.13, -24.11 33.04 C-30.94 32.96, -38.57 29.4, -43.7 27.57 C-48.83 25.73, -52.63 24.33, -54.88 22.02 C-57.13 19.7, -57.6 16.53, -57.21 13.66 C-56.81 10.8, -53.97 7.28, -52.5 4.84 C-51.03 2.41, -49.62 -0.1, -48.39 -0.97 C-47.16 -1.84, -53.23 -0.75, -45.12 -0.38 C-37 -0.01, -7.51 0.8, 0.29 1.27" stroke="none" stroke-width="0" fill="#4e44db" fill-rule="evenodd"></path><path d="M1.12 1.08 C1.86 1.05, 2.24 -0.39, 3.35 0.52 C4.45 1.43, 6.66 4.04, 7.74 6.56 C8.81 9.07, 9.87 13.09, 9.8 15.59 C9.73 18.08, 9.63 19.26, 7.31 21.54 C4.98 23.82, 0.88 27.57, -4.15 29.29 C-9.18 31.01, -16.54 31.92, -22.86 31.88 C-29.18 31.83, -37.28 30.81, -42.09 29 C-46.9 27.2, -49.71 23.5, -51.71 21.04 C-53.7 18.59, -53.42 16.72, -54.08 14.29 C-54.73 11.87, -56.09 8.59, -55.62 6.49 C-55.16 4.39, -52.93 2.64, -51.3 1.71 C-49.67 0.78, -54.59 1.23, -45.86 0.91 C-37.12 0.6, -6.54 -0.11, 1.09 -0.19 M0.25 0.6 C1.43 0.65, 3.78 0.48, 5.43 1.69 C7.08 2.89, 9.28 5.88, 10.14 7.85 C10.99 9.81, 11.2 11.03, 10.55 13.45 C9.89 15.87, 8.49 19.8, 6.21 22.34 C3.93 24.88, 1.58 27.33, -3.14 28.68 C-7.87 30.03, -15.52 30.42, -22.14 30.46 C-28.75 30.51, -37.71 30.72, -42.84 28.94 C-47.97 27.16, -50.62 22.37, -52.91 19.81 C-55.2 17.25, -56.09 15.65, -56.57 13.58 C-57.05 11.51, -56.99 9.42, -55.8 7.41 C-54.62 5.41, -51.16 2.68, -49.45 1.54 C-47.75 0.39, -53.95 0.9, -45.55 0.57 C-37.15 0.23, -6.66 -0.4, 0.96 -0.49" stroke="#1e1e1e" stroke-width="2" fill="none"></path></g></g><mask></mask><g stroke-linecap="round"><g transform="translate(66.85086360680245 56.32966175514616) rotate(0 -22.9594594251718 15.695639048943633)" fill-rule="evenodd"><path d="M-0.58 -0.78 C-0.52 -0.48, 1.14 0.45, 2.62 1.38 C4.1 2.31, 6.92 2.75, 8.29 4.8 C9.66 6.85, 11.03 11.08, 10.86 13.67 C10.69 16.26, 9.83 17.72, 7.28 20.36 C4.72 22.99, 0.75 27.71, -4.48 29.5 C-9.71 31.3, -17.35 31.07, -24.09 31.1 C-30.82 31.14, -39.75 31.64, -44.9 29.72 C-50.05 27.81, -53.67 22.41, -54.97 19.63 C-56.26 16.85, -53.07 15.57, -52.66 13.03 C-52.26 10.49, -53.03 6.44, -52.53 4.41 C-52.03 2.38, -50.8 1.37, -49.66 0.85 C-48.52 0.33, -54.26 1.01, -45.71 1.27 C-37.15 1.53, -6.21 2.36, 1.67 2.41" stroke="none" stroke-width="0" fill="#4e44db" fill-rule="evenodd"></path><path d="M-1.2 -0.71 C-0.78 -0.69, 1.8 -0.18, 3.6 1.18 C5.41 2.53, 8.64 5.01, 9.63 7.41 C10.62 9.81, 10.18 13.21, 9.55 15.57 C8.92 17.93, 7.97 19.45, 5.84 21.58 C3.71 23.71, 1.48 26.51, -3.23 28.34 C-7.95 30.16, -16.06 32.47, -22.48 32.54 C-28.89 32.61, -36.84 30.8, -41.73 28.75 C-46.62 26.71, -49.5 22.61, -51.84 20.26 C-54.18 17.92, -55.19 16.87, -55.79 14.68 C-56.39 12.48, -56.34 9.18, -55.44 7.09 C-54.54 5, -52.15 3.36, -50.4 2.14 C-48.64 0.93, -53.29 0.1, -44.91 -0.19 C-36.52 -0.48, -7.66 0.47, -0.1 0.41 M0.38 1.54 C1.06 2.27, 4.32 2.03, 5.82 2.69 C7.32 3.34, 8.64 3.7, 9.37 5.49 C10.09 7.28, 10.46 10.6, 10.17 13.42 C9.88 16.24, 9.61 20.1, 7.62 22.4 C5.64 24.7, 3.12 25.72, -1.74 27.23 C-6.61 28.74, -14.8 31.25, -21.55 31.47 C-28.31 31.69, -37.03 30.09, -42.29 28.56 C-47.55 27.03, -50.91 24.68, -53.11 22.28 C-55.32 19.88, -55.12 16.49, -55.52 14.16 C-55.92 11.84, -56.15 10.32, -55.52 8.32 C-54.89 6.33, -53.03 3.77, -51.74 2.2 C-50.44 0.62, -56.25 -0.82, -47.77 -1.12 C-39.28 -1.41, -8.98 0.49, -0.85 0.43" stroke="#1e1e1e" stroke-width="2" fill="none"></path></g></g><mask></mask><g stroke-linecap="round"><g transform="translate(43.83846360680249 10.330061755146176) rotate(0 -0.02772695785972701 5.4345826263498225)" fill-rule="evenodd"><path d="M-0.88 0.56 C-1.16 1.13, -2.6 1.79, -2.75 3.32 C-2.89 4.86, -2.7 8.58, -1.76 9.77 C-0.83 10.97, 1.98 11.78, 2.86 10.47 C3.74 9.16, 3.65 3.68, 3.51 1.91 C3.37 0.14, 2.64 0.24, 2 -0.15 C1.36 -0.54, 0.18 -0.48, -0.33 -0.45" stroke="none" stroke-width="0" fill="#8b52f4" fill-rule="evenodd"></path><path d="M-0.28 -0.02 C-0.66 0.44, -2.2 0.8, -2.63 2.5 C-3.05 4.21, -3.71 8.94, -2.82 10.23 C-1.92 11.52, 1.77 11.52, 2.75 10.24 C3.72 8.96, 3.33 4.22, 3.02 2.55 C2.71 0.89, 1.35 0.66, 0.89 0.25 C0.43 -0.16, 0.38 0.15, 0.27 0.08 M0.22 -0.33 C-0.15 0.04, -2.23 0.34, -2.76 2 C-3.29 3.67, -3.85 8.39, -2.94 9.66 C-2.02 10.93, 1.78 10.78, 2.7 9.62 C3.63 8.45, 3.01 4.25, 2.61 2.65 C2.21 1.05, 0.83 0.51, 0.31 0.02 C-0.2 -0.46, -0.44 -0.21, -0.48 -0.27" stroke="#1e1e1e" stroke-width="2" fill="none"></path></g></g><mask></mask><g stroke-linecap="round"><g transform="translate(67.8388636068025 25.330061755146176) rotate(0 -24.000664144390598 6.933556811949586)" fill-rule="evenodd"><path d="M-1.92 0.15 C-2.33 -1.08, -2.18 -6.46, -3.03 -8.17 C-3.87 -9.88, -0.7 -9.97, -6.98 -10.12 C-13.27 -10.27, -33.9 -10.18, -40.72 -9.08 C-47.53 -7.98, -46.47 -4.87, -47.87 -3.5 C-49.26 -2.14, -48.73 -4.43, -49.07 -0.9 C-49.42 2.63, -50.18 14.29, -49.95 17.65 C-49.73 21.01, -49.52 18.69, -47.73 19.24 C-45.94 19.78, -46.43 20.71, -39.22 20.92 C-32 21.12, -10.94 20.94, -4.46 20.48 C2.02 20.02, -1.14 19.03, -0.35 18.16 C0.44 17.29, -0.05 17.89, 0.29 15.27 C0.63 12.65, 1.46 4.69, 1.67 2.41" stroke="none" stroke-width="0" fill="#f08af4" fill-rule="evenodd"></path><path d="M0.95 0.8 C0.79 -0.12, -0.14 -4.08, -1.93 -5.58 C-3.72 -7.08, -3.21 -7.64, -9.77 -8.18 C-16.32 -8.72, -35.16 -9.5, -41.24 -8.81 C-47.32 -8.11, -45.26 -5.52, -46.24 -4.01 C-47.21 -2.49, -46.99 -3.03, -47.1 0.29 C-47.22 3.6, -47.05 12.57, -46.91 15.89 C-46.78 19.22, -47.11 19.04, -46.31 20.25 C-45.52 21.46, -48.79 22.6, -42.15 23.16 C-35.51 23.72, -13.47 24.39, -6.47 23.59 C0.54 22.79, -1.2 19.88, -0.14 18.35 C0.92 16.82, -0.2 17.56, -0.1 14.41 C0 11.25, 0.27 1.85, 0.46 -0.59 M0 0.18 C-0.18 -1.08, -1.3 -5.58, -2.51 -7.29 C-3.72 -9, -0.87 -10.01, -7.27 -10.09 C-13.67 -10.17, -34.22 -8.9, -40.91 -7.77 C-47.61 -6.65, -46.1 -4.53, -47.43 -3.34 C-48.75 -2.14, -49.14 -4.15, -48.88 -0.6 C-48.62 2.94, -46.65 14.54, -45.87 17.95 C-45.09 21.36, -45.06 19.17, -44.18 19.85 C-43.29 20.52, -46.99 21.4, -40.57 22.03 C-34.14 22.65, -11.9 24.08, -5.62 23.62 C0.65 23.15, -3.58 20.8, -2.9 19.23 C-2.23 17.66, -2.2 17.69, -1.56 14.2 C-0.92 10.71, 0.52 0.73, 0.94 -1.72" stroke="#1e1e1e" stroke-width="2" fill="none"></path></g></g><mask></mask><g stroke-linecap="round" transform="translate(47.98815990309876 26.330061755146176) rotate(0 4.818689814814832 4.90790777777778)"><path d="M4.24 -0.23 C5.24 -0.42, 6.37 0.3, 7.26 0.85 C8.14 1.4, 9.23 2.02, 9.56 3.05 C9.88 4.08, 9.57 5.99, 9.21 7.03 C8.85 8.07, 8.28 8.85, 7.41 9.3 C6.54 9.75, 5.02 9.92, 3.99 9.73 C2.96 9.54, 1.9 9.01, 1.23 8.18 C0.56 7.35, -0.03 5.86, -0.02 4.73 C-0.01 3.6, 0.65 2.16, 1.3 1.41 C1.95 0.66, 3.35 0.45, 3.86 0.23 C4.38 0.01, 4.35 0.03, 4.37 0.09 M5.63 -0.15 C6.71 -0.11, 7.89 0.94, 8.6 1.75 C9.3 2.55, 9.88 3.55, 9.87 4.66 C9.86 5.78, 9.18 7.57, 8.54 8.44 C7.89 9.3, 7.1 9.81, 6.01 9.87 C4.93 9.92, 3.01 9.3, 2.03 8.77 C1.05 8.24, 0.44 7.62, 0.13 6.67 C-0.19 5.73, -0.32 4.16, 0.12 3.09 C0.56 2.02, 1.8 0.8, 2.77 0.26 C3.73 -0.29, 5.51 -0.14, 5.92 -0.2 C6.33 -0.25, 5.33 -0.09, 5.23 -0.05" stroke="none" stroke-width="0" fill="#fdfdfd"></path><path d="M4.27 0.18 C5.23 0.04, 6.78 0.49, 7.65 1.08 C8.53 1.68, 9.29 2.83, 9.53 3.76 C9.77 4.68, 9.52 5.74, 9.09 6.63 C8.65 7.52, 7.79 8.59, 6.91 9.1 C6.02 9.62, 4.75 9.88, 3.79 9.71 C2.84 9.54, 1.82 8.96, 1.18 8.1 C0.54 7.24, -0.09 5.63, -0.04 4.55 C0 3.47, 0.74 2.34, 1.46 1.63 C2.18 0.93, 3.78 0.59, 4.29 0.32 C4.8 0.05, 4.53 0.04, 4.54 0.02 M5.28 -0.23 C6.3 -0.23, 7.41 0.34, 8.09 1.1 C8.77 1.86, 9.24 3.3, 9.35 4.32 C9.46 5.34, 9.31 6.31, 8.75 7.22 C8.18 8.13, 6.97 9.45, 5.96 9.79 C4.94 10.14, 3.46 9.74, 2.64 9.27 C1.83 8.8, 1.42 7.91, 1.07 6.96 C0.71 6, 0.38 4.54, 0.52 3.56 C0.67 2.57, 1.21 1.59, 1.94 1.04 C2.67 0.49, 4.38 0.33, 4.93 0.26 C5.47 0.19, 5.17 0.5, 5.21 0.59" stroke="#1e1e1e" stroke-width="2" fill="none"></path></g><g stroke-linecap="round" transform="translate(29.838863606802505 26.330061755146176) rotate(0 4.907951759259248 4.997160000000008)"><path d="M4.73 0.13 C5.74 0.04, 7.34 0.1, 8.16 0.81 C8.98 1.51, 9.41 3.24, 9.63 4.36 C9.86 5.47, 9.97 6.61, 9.49 7.49 C9.02 8.38, 7.81 9.26, 6.81 9.67 C5.81 10.08, 4.52 10.3, 3.5 9.94 C2.48 9.58, 1.24 8.53, 0.68 7.53 C0.12 6.54, 0.03 5, 0.15 3.98 C0.26 2.96, 0.57 2.09, 1.38 1.41 C2.18 0.74, 4.44 0.17, 5 -0.05 C5.55 -0.26, 4.67 0.08, 4.7 0.12 M5.67 0.11 C6.7 0.18, 8.06 0.61, 8.75 1.46 C9.43 2.3, 9.72 4.08, 9.77 5.2 C9.83 6.32, 9.79 7.46, 9.08 8.16 C8.37 8.87, 6.63 9.22, 5.53 9.43 C4.43 9.64, 3.35 9.89, 2.47 9.44 C1.59 8.98, 0.55 7.76, 0.25 6.7 C-0.06 5.64, 0.27 4.1, 0.66 3.07 C1.06 2.05, 1.85 1.08, 2.61 0.55 C3.37 0.01, 4.75 -0.02, 5.21 -0.16 C5.67 -0.31, 5.36 -0.36, 5.39 -0.32" stroke="none" stroke-width="0" fill="#fdfdfd"></path><path d="M5.16 0.25 C6.18 0.22, 7.48 0.83, 8.22 1.45 C8.96 2.07, 9.48 2.98, 9.62 3.97 C9.76 4.96, 9.57 6.41, 9.07 7.38 C8.57 8.34, 7.57 9.34, 6.62 9.77 C5.67 10.2, 4.4 10.36, 3.39 9.96 C2.37 9.56, 1.08 8.34, 0.55 7.38 C0.02 6.41, 0.02 5.15, 0.21 4.15 C0.39 3.16, 0.86 2.11, 1.67 1.4 C2.48 0.7, 4.48 0.18, 5.04 -0.08 C5.61 -0.34, 5.07 -0.24, 5.08 -0.15 M4.44 -0.04 C5.32 -0.16, 6.53 0.45, 7.35 1.02 C8.18 1.58, 9.11 2.32, 9.38 3.35 C9.65 4.38, 9.42 6.23, 8.96 7.2 C8.51 8.18, 7.44 8.83, 6.66 9.22 C5.87 9.6, 5.12 9.78, 4.25 9.51 C3.38 9.23, 2.11 8.37, 1.43 7.56 C0.75 6.75, 0.2 5.61, 0.19 4.66 C0.18 3.71, 0.63 2.54, 1.38 1.85 C2.12 1.16, 4.1 0.76, 4.65 0.53 C5.19 0.3, 4.6 0.53, 4.63 0.46" stroke="#1e1e1e" stroke-width="2" fill="none"></path></g><g stroke-linecap="round"><g transform="translate(87.90886360680244 84.18846175514614) rotate(0 -6.483377082342457 2.4091963034632045)" fill-rule="evenodd"><path d="M-1.09 1.04 C-0.81 1.15, 1.94 -0.21, 2.37 0.28 C2.81 0.78, 2.63 3.32, 1.5 4 C0.37 4.68, -3.68 3.36, -4.41 4.35 C-5.15 5.33, -2.93 8.98, -2.93 9.9 C-2.93 10.81, -3.47 10.53, -4.4 9.84 C-5.33 9.15, -6.7 6.69, -8.52 5.78 C-10.33 4.87, -14.34 4.67, -15.3 4.37 C-16.25 4.06, -15.42 4.67, -14.25 3.96 C-13.07 3.24, -9.93 2.37, -8.23 0.05 C-6.54 -2.26, -4.56 -9.16, -4.07 -9.96 C-3.57 -10.75, -5.84 -6.49, -5.28 -4.7 C-4.73 -2.91, -1.26 0.12, -0.74 0.8 C-0.21 1.49, -2.4 -0.66, -2.12 -0.59" stroke="none" stroke-width="0" fill="#ffa43d" fill-rule="evenodd"></path><path d="M0.15 -0.13 C0.94 0.02, 3.23 1.19, 3.98 1.72 C4.74 2.24, 5.55 2.48, 4.67 3.03 C3.79 3.57, 0.5 3.56, -1.29 4.98 C-3.07 6.4, -5.05 10.29, -6.05 11.54 C-7.06 12.8, -6.78 13.27, -7.31 12.52 C-7.85 11.78, -8.06 8.67, -9.25 7.07 C-10.45 5.47, -13.37 3.76, -14.5 2.91 C-15.62 2.05, -16.88 2.79, -16.01 1.95 C-15.14 1.11, -11.11 -0.45, -9.3 -2.12 C-7.49 -3.79, -6.15 -7.97, -5.17 -8.06 C-4.18 -8.15, -4.02 -3.98, -3.39 -2.65 C-2.76 -1.32, -1.93 -0.39, -1.4 -0.1 C-0.87 0.2, -0.59 -0.81, -0.19 -0.88 M-1.23 -1.24 C-0.48 -1.52, 2.38 -1.08, 3.32 -0.12 C4.25 0.83, 5.04 3.5, 4.38 4.49 C3.72 5.48, 0.82 4.59, -0.64 5.82 C-2.09 7.05, -3.42 10.89, -4.36 11.87 C-5.31 12.86, -5.61 12.68, -6.3 11.73 C-7 10.79, -7.09 7.75, -8.54 6.21 C-9.98 4.66, -13.42 3.37, -14.95 2.46 C-16.48 1.56, -18.84 1.67, -17.73 0.78 C-16.62 -0.11, -9.92 -1.55, -8.29 -2.88 C-6.66 -4.21, -9.1 -7.12, -7.93 -7.18 C-6.77 -7.25, -2.34 -4.33, -1.29 -3.28 C-0.25 -2.23, -1.71 -1.17, -1.66 -0.88 C-1.61 -0.59, -0.97 -1.46, -1 -1.54" stroke="#1e1e1e" stroke-width="2" fill="none"></path></g></g><mask></mask><g stroke-linecap="round"><g transform="translate(59.25446360680249 68.9128617551462) rotate(0 7.40687866070337 -6.630136087569099)" fill-rule="evenodd"><path d="M-2.36 -1.13 C-0.84 0.1, 4.98 6.89, 6.9 8.61 C8.82 10.32, 7.99 10.67, 9.18 9.17 C10.37 7.68, 11.46 1.94, 14.05 -0.37 C16.65 -2.67, 22.91 -3.7, 24.77 -4.64 C26.63 -5.58, 26.43 -5.2, 25.2 -6.02 C23.98 -6.83, 19.18 -7.88, 17.42 -9.53 C15.66 -11.18, 16.6 -13.11, 14.66 -15.93 C12.71 -18.76, 7.43 -25.34, 5.73 -26.48 C4.03 -27.61, 5.45 -24.4, 4.46 -22.74 C3.47 -21.09, 0.5 -18.42, -0.2 -16.52 C-0.91 -14.63, 2.46 -12.8, 0.24 -11.36 C-1.99 -9.93, -12.16 -9.37, -13.53 -7.91 C-14.91 -6.45, -10.26 -3.99, -8.01 -2.6 C-5.77 -1.22, -1.42 -0.26, -0.07 0.4 C1.28 1.06, -0.19 1.44, 0.08 1.35" stroke="none" stroke-width="0" fill="#ff8a69" fill-rule="evenodd"></path><path d="M0.54 0.53 C1.45 2.33, 4.41 8.93, 5.62 10.65 C6.83 12.38, 6.69 12.67, 7.79 10.87 C8.89 9.08, 9.57 2.62, 12.23 -0.1 C14.88 -2.82, 21.81 -4.19, 23.72 -5.43 C25.63 -6.67, 24.8 -6.54, 23.68 -7.52 C22.55 -8.5, 18.87 -10.33, 16.98 -11.31 C15.1 -12.3, 13.8 -11.2, 12.37 -13.42 C10.93 -15.64, 9.46 -22.88, 8.37 -24.63 C7.28 -26.38, 6.95 -25.31, 5.83 -23.93 C4.7 -22.54, 2.88 -18.22, 1.63 -16.32 C0.39 -14.42, 0.54 -13.89, -1.65 -12.53 C-3.83 -11.17, -10.22 -9.35, -11.5 -8.14 C-12.79 -6.93, -11.24 -6.51, -9.38 -5.28 C-7.51 -4.06, -1.79 -1.76, -0.32 -0.8 C1.16 0.17, -0.5 0.45, -0.54 0.51 M-0.64 -0.23 C0.18 1.2, 3.8 6.65, 5.14 8.68 C6.49 10.71, 6.29 13.22, 7.43 11.93 C8.57 10.64, 8.96 3.73, 11.97 0.94 C14.99 -1.84, 23.31 -3.28, 25.51 -4.79 C27.71 -6.29, 26.99 -6.75, 25.16 -8.08 C23.34 -9.41, 16.85 -11.85, 14.54 -12.76 C12.23 -13.67, 12.56 -11.89, 11.29 -13.54 C10.03 -15.19, 8.24 -20.84, 6.94 -22.66 C5.65 -24.48, 4.36 -25.67, 3.51 -24.49 C2.65 -23.3, 2.37 -17.46, 1.8 -15.53 C1.24 -13.6, 2.3 -14.54, 0.11 -12.91 C-2.09 -11.29, -9.76 -6.96, -11.37 -5.77 C-12.99 -4.58, -11.49 -6.48, -9.56 -5.76 C-7.64 -5.04, -1.44 -2.15, 0.19 -1.46 C1.82 -0.77, -0.02 -1.89, 0.22 -1.63" stroke="#1e1e1e" stroke-width="2" fill="none"></path></g></g><mask></mask></svg>