<?xml version="1.0" standalone="no"?>
<!DOCTYPE svg PUBLIC "-//W3C//DTD SVG 1.1//EN" "http://www.w3.org/Graphics/SVG/1.1/DTD/svg11.dtd">
<svg version="1.1" xmlns="http://www.w3.org/2000/svg" viewBox="0 0 106.41360361733695 101.12114996874769" width="106.41360361733695" height="101.12114996874769"><!-- svg-source:excalidraw --><metadata></metadata><defs><style class="style-fonts">
      </style></defs><g stroke-linecap="round"><g transform="translate(60.74116451090964 16.57885317950806) rotate(0 -7.534362702241168 33.9817218048658)" fill-rule="evenodd"><path d="M0.6 -0.94 C2.53 1.41, 4.62 10.94, 9.38 14.29 C14.15 17.65, 25.57 17.48, 29.19 19.21 C32.8 20.93, 30.21 22.64, 31.06 24.63 C31.91 26.62, 35.93 27.2, 34.29 31.14 C32.65 35.07, 23.56 42.02, 21.21 48.25 C18.85 54.48, 21.5 64.4, 20.15 68.52 C18.8 72.63, 18.18 73.64, 13.1 72.94 C8.01 72.23, -3.17 64.3, -10.36 64.3 C-17.55 64.29, -25.45 72.48, -30.01 72.9 C-34.58 73.31, -36.72 71.46, -37.76 66.8 C-38.81 62.14, -34.19 51.1, -36.28 44.94 C-38.37 38.79, -48.33 33.51, -50.3 29.86 C-52.28 26.22, -49.2 25.1, -48.12 23.08 C-47.04 21.05, -47.83 19.37, -43.8 17.71 C-39.78 16.04, -29.04 16.96, -23.98 13.09 C-18.91 9.22, -16.83 -3.07, -13.43 -5.49 C-10.02 -7.91, -5.62 -2.37, -3.53 -1.42 C-1.44 -0.46, -1.39 -0.4, -0.88 0.24" stroke="none" stroke-width="0" fill="#ffd43b" fill-rule="evenodd"></path><path d="M0.71 1.12 C2.08 3.64, 3.64 11.67, 8.57 14.65 C13.51 17.64, 26.03 17.19, 30.31 19.02 C34.59 20.86, 33.92 23.44, 34.25 25.66 C34.58 27.87, 34.86 28.89, 32.3 32.3 C29.73 35.72, 21.02 39.97, 18.86 46.14 C16.7 52.31, 20.51 64.63, 19.34 69.31 C18.18 73.98, 16.61 74.86, 11.86 74.19 C7.11 73.51, -2.56 65.27, -9.17 65.25 C-15.79 65.23, -23.16 73.46, -27.81 74.06 C-32.47 74.65, -35.74 73.42, -37.12 68.82 C-38.51 64.21, -34.22 52.57, -36.13 46.44 C-38.04 40.31, -46.31 35.87, -48.57 32.05 C-50.84 28.23, -50.37 25.49, -49.73 23.55 C-49.08 21.6, -48.87 21.69, -44.7 20.39 C-40.53 19.1, -30.27 20.07, -24.69 15.79 C-19.11 11.5, -15.01 -2.02, -11.2 -5.3 C-7.39 -8.57, -3.74 -4.63, -1.83 -3.86 C0.08 -3.09, -0.13 -1.36, 0.27 -0.68 M-0.38 0.66 C0.78 3.37, 2.42 12.61, 7.48 15.84 C12.55 19.07, 25.44 18.74, 30.01 20.03 C34.58 21.32, 34.22 22, 34.9 23.6 C35.58 25.19, 36.56 26.01, 34.07 29.61 C31.58 33.22, 22.41 38.81, 19.98 45.23 C17.56 51.65, 21.04 63.28, 19.51 68.15 C17.98 73.02, 15.35 75.09, 10.81 74.42 C6.27 73.76, -1.47 64.22, -7.75 64.17 C-14.03 64.12, -21.99 73.19, -26.89 74.12 C-31.8 75.05, -35.95 74.37, -37.16 69.73 C-38.37 65.1, -32.36 52.65, -34.16 46.3 C-35.96 39.96, -45.25 34.98, -47.97 31.66 C-50.68 28.35, -51.14 28.3, -50.46 26.4 C-49.78 24.49, -48.38 22.38, -43.88 20.25 C-39.38 18.12, -28.72 17.83, -23.48 13.62 C-18.24 9.4, -15.86 -2.1, -12.43 -5.05 C-9.01 -8, -4.86 -4.81, -2.95 -4.1 C-1.04 -3.38, -1.69 -1.23, -0.98 -0.79" stroke="#1e1e1e" stroke-width="2" fill="none"></path></g></g><mask></mask></svg>