<svg width="621" height="621" viewBox="0 0 621 621" fill="none" xmlns="http://www.w3.org/2000/svg">
<rect width="621" height="621" rx="71" fill="white"/>
<path d="M160.183 103.103C166.195 100.791 172.583 101.215 178.39 102.807C189.886 105.959 200.253 114.005 203.823 117.83C205.053 119.148 208.039 121.162 212.438 123.625C216.702 126.013 221.912 128.62 227.229 131.163C237.654 136.149 248.916 141.077 253.054 143.146C257.373 145.305 269.99 152.971 283.269 160.846C296.731 168.83 310.96 177.085 318.895 180.712C335.344 188.232 400.094 225.971 415.784 235.2C423.856 239.948 435.397 248.432 447.288 257.149C459.28 265.939 471.701 275.022 481.78 281.206C485.566 283.529 496.072 288.914 504.313 294.733C508.482 297.676 512.466 300.984 515.021 304.434C517.553 307.852 519.257 312.285 516.821 316.669C514.946 320.045 511.068 323.526 506.653 326.828C502.122 330.217 496.581 333.732 490.915 337.109C485.24 340.49 479.367 343.774 474.164 346.687C468.924 349.62 464.425 352.145 461.378 354.063C448.91 361.914 413.277 386.904 388.11 404.148C362.769 421.512 308.628 447.635 278.059 461.993C262.945 469.092 241.705 482.639 221.482 494.971C211.435 501.098 201.663 506.908 193.16 511.366C184.781 515.758 177.217 519.067 171.721 519.853C161.342 521.335 154.173 519.324 149.408 513.46C145.016 508.054 143.189 499.868 141.589 490.725C139.937 481.285 136.908 454.453 134.472 427.592C132.044 400.823 130.148 373.467 130.867 363.161C132.255 343.271 135.039 263.936 135.039 238.002C135.039 212.269 133.644 177.544 135.048 158.355C136.199 142.623 142.194 125.44 145.054 118.767L145.067 118.735L145.082 118.702C148.847 110.42 154.088 105.447 160.183 103.103ZM141.54 238.002C141.54 264.079 138.751 343.566 137.352 363.613C136.678 373.276 138.498 400.021 140.946 427.005C143.385 453.896 146.394 480.469 147.993 489.605C149.643 499.037 151.3 505.478 154.454 509.36C157.236 512.784 161.676 514.72 170.801 513.416C175.057 512.808 181.715 510.024 190.141 505.607C198.443 501.256 208.059 495.542 218.097 489.421C238.043 477.257 259.76 463.405 275.295 456.108C306.026 441.674 359.622 415.786 384.435 398.785C409.422 381.665 445.305 356.5 457.914 348.561C461.137 346.533 465.809 343.914 470.988 341.014C476.205 338.093 482.001 334.852 487.587 331.523C493.182 328.19 498.497 324.809 502.76 321.621C507.139 318.346 509.994 315.57 511.138 313.512C511.72 312.463 511.744 310.933 509.796 308.303C507.871 305.704 504.576 302.877 500.563 300.044C492.441 294.309 482.981 289.571 478.379 286.747C468.025 280.393 455.368 271.132 443.444 262.392C431.419 253.578 420.205 245.344 412.488 240.804C396.598 231.458 332.249 193.966 316.192 186.625C307.872 182.822 293.309 174.359 279.953 166.438C266.414 158.408 254.187 150.981 250.146 148.961C245.925 146.85 235.361 142.259 224.424 137.028C219.061 134.463 213.705 131.786 209.262 129.298C204.954 126.885 201.09 124.43 199.07 122.266C196.138 119.124 186.768 111.846 176.67 109.077C171.68 107.709 166.806 107.522 162.516 109.172C158.312 110.789 154.211 114.342 151.011 121.37C148.291 127.73 142.608 144.129 141.532 158.829C140.15 177.72 141.54 211.723 141.54 238.002Z" fill="#2B292B"/>
<path d="M145.255 156.269C148.506 139.551 160.859 108.252 184.264 116.796C213.52 127.477 222.808 143.267 239.061 156.269C255.315 169.272 283.178 185.99 303.611 194.349C309.313 196.682 314.87 199.052 320.212 201.366C306.035 218.478 298.181 243.829 334.725 264.472C307.808 286.46 290.924 307.35 299.896 326.7C308.869 346.049 321.857 344.403 331.727 355.837C326.96 366.804 294.904 408.104 335.447 419.205C326.562 423.958 319.67 427.569 317.079 428.865C307.791 433.509 219.557 479.019 184.264 496.666C169.167 504.214 151.292 503.167 145.255 468.803C139.218 434.438 145.255 405.646 145.255 390.785C145.255 375.925 149.435 350.384 145.255 327.629C141.076 304.874 141.54 261.221 145.255 244.968C148.97 228.714 139.218 182.275 145.255 156.269ZM421.765 368.271C413.98 373.075 407.717 377.111 404.384 379.64C397.581 384.801 377.743 396.122 358.578 406.663L362.124 404.253L414.6 372.21C416.501 371.149 419.029 369.756 421.765 368.271ZM445.752 264.761C474.049 282.298 507.942 304.594 507.942 309.053C507.942 314.626 511.657 313.233 495.404 323.913C486.426 329.813 463.704 343.081 442.892 355.499C446.853 348.738 451.687 334.574 454.073 326.7L445.752 264.761ZM383.441 229.225C396.126 235.658 411.039 243.809 426.21 252.862C430.718 255.553 435.819 258.641 441.215 261.959C425.122 252.966 401.801 239.826 383.441 229.225Z" fill="#FFC300"/>
<path d="M167.435 114.037C172.731 111.691 178.764 111.328 185.379 113.743C214.76 124.47 232.327 132.973 248.987 146.301C264.87 159.007 289.134 170.941 309.486 179.267C320.067 183.595 329.658 189.925 338.048 196.004C346.606 202.205 353.613 207.9 359.627 211.537C369.536 217.528 379.334 222.831 390.324 228.821C401.302 234.803 413.422 241.446 427.875 250.071C442.303 258.681 462.783 271.364 479.674 282.605C488.111 288.22 495.705 293.51 501.21 297.768C503.952 299.889 506.251 301.811 507.892 303.427C508.707 304.23 509.438 305.034 509.989 305.809C510.438 306.44 511.193 307.619 511.193 309.054C511.193 310.213 511.354 310.599 511.498 311.853C511.648 313.158 511.583 314.677 510.487 316.35C509.6 317.704 508.132 318.993 506.175 320.466C504.146 321.994 501.252 323.96 497.189 326.63C488.981 332.024 469.483 343.465 450.51 354.745C431.372 366.122 412.896 377.263 406.348 382.23C399.379 387.517 379.616 398.796 360.731 409.191C341.741 419.645 323.236 429.421 318.533 431.773C314.029 434.024 290.915 448.112 263.652 464.312C236.563 480.409 205.578 498.466 185.718 508.397C177.933 512.289 168.532 514.935 160.046 511.177C151.444 507.366 145.139 497.61 142.054 480.046C138.973 462.513 138.986 443.774 139.744 427.668C140.124 419.604 140.694 412.157 141.165 405.839C141.64 399.467 142.005 394.352 142.005 390.786C142.005 383.291 143.068 372.787 143.576 362.015C144.094 351.007 144.08 339.226 142.058 328.216C139.915 316.549 138.986 299.717 139.044 283.849C139.102 268.025 140.143 252.743 142.086 244.243C142.907 240.652 143.024 235.099 142.726 228.046C142.431 221.065 141.756 213.015 141.142 204.51C139.933 187.749 138.942 169.152 142.077 155.588C143.76 146.97 147.787 134.497 154.57 125.151C157.983 120.448 162.236 116.341 167.435 114.037ZM148.506 390.786C148.506 394.649 148.116 400.041 147.648 406.323C147.176 412.659 146.613 420.015 146.239 427.973C145.488 443.91 145.5 462.09 148.457 478.922C151.409 495.722 157.061 502.744 162.679 505.232C168.414 507.772 175.499 506.237 182.81 502.582C202.423 492.776 233.202 474.843 260.33 458.723C287.284 442.707 310.841 428.35 315.625 425.958C320.21 423.665 338.625 413.938 357.597 403.495C376.676 392.992 395.922 381.979 402.419 377.05C409.34 371.8 428.245 360.418 447.187 349.157C466.294 337.798 485.573 326.485 493.619 321.198C497.682 318.527 500.419 316.662 502.264 315.272C504.181 313.829 504.833 313.116 505.049 312.787C505.056 312.776 505.077 312.93 505.039 312.595C504.999 312.252 504.756 311.007 504.703 309.593C504.699 309.588 504.696 309.582 504.692 309.577C504.453 309.241 504.019 308.738 503.33 308.06C501.964 306.714 499.902 304.976 497.232 302.91C491.91 298.795 484.469 293.606 476.072 288.017C459.294 276.852 438.908 264.226 424.544 255.654C410.205 247.097 398.178 240.505 387.213 234.529C376.261 228.561 366.322 223.183 356.263 217.1C349.951 213.284 342.33 207.137 334.233 201.269C325.968 195.281 316.878 189.315 307.025 185.284C286.511 176.892 261.55 164.677 244.926 151.378C229.078 138.7 212.281 130.485 183.149 119.85C178.061 117.992 173.773 118.339 170.068 119.981C166.268 121.665 162.84 124.825 159.833 128.969C153.792 137.293 150.021 148.792 148.446 156.89L148.435 156.947L148.422 157.005C145.535 169.441 146.4 187.04 147.627 204.042C148.232 212.429 148.922 220.662 149.222 227.772C149.519 234.81 149.461 241.157 148.424 245.692C146.652 253.446 145.604 268.117 145.546 283.872C145.488 299.582 146.416 315.953 148.453 327.041C150.61 338.786 150.596 351.154 150.07 362.32C149.532 373.723 148.506 383.42 148.506 390.786Z" fill="#2B292B"/>
<path d="M329.297 190.228C320.726 198.203 310.662 211.45 307.767 225.279C306.336 232.111 306.672 238.984 309.685 245.487C312.701 251.995 318.544 258.448 328.682 264.175C329.617 264.703 330.23 265.658 330.322 266.728C330.414 267.798 329.971 268.843 329.139 269.522C315.612 280.572 304.983 289.758 298.775 298.466C295.706 302.771 293.846 306.793 293.195 310.704C292.553 314.562 293.051 318.519 295.039 322.806C299.166 331.705 304.887 336.345 310.995 340.232C316.945 344.017 324.194 347.515 329.544 353.713C330.695 355.046 330.575 357.055 329.272 358.241C326.41 360.846 322.619 365.421 319.256 371.008C315.894 376.593 313.09 382.973 312.003 389.161C310.92 395.332 311.579 401.043 314.755 405.707C317.931 410.371 324.007 414.552 334.933 416.862L333.589 423.222C321.635 420.695 313.803 415.86 309.381 409.366C304.959 402.871 304.328 395.278 305.6 388.037C306.868 380.812 310.065 373.67 313.686 367.656C316.502 362.977 319.655 358.852 322.526 355.785C318.367 351.898 313.326 349.42 307.505 345.716C300.828 341.468 293.987 335.993 289.141 325.542C286.643 320.155 285.909 314.876 286.781 309.637C287.644 304.45 290.045 299.512 293.481 294.692C299.673 286.006 309.637 277.17 321.474 267.404C312.734 261.717 307.026 255.212 303.786 248.219C300.072 240.203 299.746 231.86 301.403 223.946C304.683 208.281 315.794 193.911 324.869 185.468L329.297 190.228Z" fill="#2B292B"/>
<path d="M333.941 192.086C325.331 200.097 316.094 212.202 313.932 224.823C312.868 231.034 313.516 237.348 316.779 243.479C320.06 249.643 326.123 255.878 336.325 261.641C337.259 262.169 337.873 263.125 337.965 264.195C338.056 265.264 337.613 266.311 336.782 266.99C323.394 277.926 312.785 288.371 306.612 298.293C300.487 308.137 298.983 317.003 302.845 325.332C306.996 334.283 311.966 338.271 317.175 341.466C322.338 344.633 328.816 347.49 334.188 353.713C335.004 354.658 335.206 355.988 334.709 357.133C334.006 358.749 332.848 360.782 331.579 362.953C330.271 365.192 328.783 367.682 327.259 370.411C324.205 375.88 321.197 381.994 319.706 387.934C318.213 393.88 318.352 399.187 320.959 403.472C323.558 407.743 329.073 411.757 340.042 414.076L338.697 420.436C326.786 417.917 319.294 413.243 315.405 406.851C311.524 400.473 311.695 393.142 313.399 386.351C315.106 379.554 318.46 372.832 321.582 367.241C323.147 364.439 324.699 361.842 325.966 359.673C326.7 358.416 327.321 357.328 327.818 356.405C323.705 352.3 319.177 350.321 313.776 347.008C307.78 343.331 301.769 338.467 296.947 328.068C291.837 317.048 294.289 305.794 301.092 294.859C307.248 284.964 317.172 274.955 329.123 264.894C320.396 259.303 314.538 253.106 311.039 246.533C307.013 238.968 306.249 231.164 307.524 223.726C310.038 209.049 320.478 195.732 329.513 187.326L333.941 192.086Z" fill="#2B292B"/>
<path d="M421.102 314.162C423.702 293.357 435.188 269.89 440.606 260.757L511.657 308.589L506.085 319.27L434.569 359.672C428.996 353.17 418.501 334.966 421.102 314.162Z" fill="#2B292B"/>
</svg>
