<svg width="419" height="420" viewBox="0 0 419 420" fill="none" xmlns="http://www.w3.org/2000/svg">
<path d="M251 119L213 91.5L198.5 109.5L193 126L201 147L218 162.5L201 180L187.5 195L181 213.5L187.5 231.5L213 255L207.5 269L198.5 291.5L203 306L220.5 317.5L243 306L297.5 271.5L321.5 257L310 210L328.5 162.5L306.5 150L251 119Z" fill="white"/>
<path d="M44.1828 2.10334C50.1954 -0.208513 56.5834 0.214602 62.39 1.80675C73.8858 4.95887 84.2533 13.0054 87.8225 16.8295C89.0531 18.148 92.039 20.1618 96.4382 22.6253C100.702 25.0129 105.912 27.6195 111.229 30.1625C121.654 35.1485 132.916 40.0771 137.054 42.1459C141.373 44.3052 153.99 51.9705 167.269 59.8462C180.731 67.8302 194.96 76.0853 202.895 79.7124C219.344 87.2323 284.094 124.971 299.784 134.2C307.856 138.948 319.397 147.432 331.288 156.149C343.28 164.939 355.701 174.022 365.78 180.206C369.566 182.529 380.072 187.914 388.313 193.733C392.482 196.676 396.466 199.984 399.021 203.434C401.553 206.852 403.257 211.285 400.821 215.669C398.946 219.045 395.068 222.526 390.653 225.828C386.122 229.217 380.581 232.732 374.915 236.109C369.24 239.49 363.367 242.774 358.164 245.687C352.924 248.62 348.425 251.145 345.378 253.063C332.91 260.914 297.277 285.904 272.11 303.148C246.769 320.512 192.628 346.635 162.059 360.993C146.945 368.092 125.705 381.639 105.482 393.971C95.4349 400.098 85.6632 405.908 77.1597 410.366C68.7808 414.758 61.2168 418.067 55.7208 418.853C45.3417 420.335 38.1729 418.324 33.4084 412.46C29.0163 407.054 27.1892 398.868 25.5891 389.725C23.9371 380.285 20.9085 353.453 18.4718 326.592C16.0435 299.823 14.1484 272.467 14.8674 262.161C16.255 242.271 19.0387 162.936 19.0387 137.002C19.0387 111.269 17.6437 76.5435 19.0478 57.3546C20.1988 41.6234 26.1941 24.4403 29.0539 17.7674L29.0675 17.7347L29.082 17.7021C32.8467 9.41982 38.0878 4.4469 44.1828 2.10334ZM25.5401 137.002C25.5401 163.079 22.7511 242.566 21.3525 262.613C20.6784 272.276 22.4983 299.021 24.946 326.005C27.3854 352.896 30.3938 379.469 31.9926 388.605C33.6432 398.037 35.3 404.478 38.4541 408.36C41.2359 411.784 45.676 413.72 54.8011 412.416C59.0572 411.808 65.7152 409.024 74.1412 404.607C82.4428 400.256 92.0593 394.542 102.097 388.421C122.043 376.257 143.76 362.405 159.295 355.108C190.026 340.674 243.622 314.786 268.435 297.785C293.422 280.665 329.305 255.5 341.914 247.561C345.137 245.533 349.809 242.914 354.988 240.014C360.205 237.093 366.001 233.852 371.587 230.523C377.182 227.19 382.497 223.809 386.76 220.621C391.139 217.346 393.994 214.57 395.138 212.512C395.72 211.463 395.744 209.933 393.796 207.303C391.871 204.704 388.576 201.877 384.563 199.044C376.441 193.309 366.981 188.571 362.379 185.747C352.025 179.393 339.368 170.132 327.444 161.392C315.419 152.578 304.205 144.344 296.488 139.804C280.598 130.458 216.249 92.9656 200.192 85.6251C191.872 81.822 177.309 73.3591 163.953 65.4379C150.414 57.4084 138.187 49.981 134.146 47.9607C129.925 45.85 119.361 41.2585 108.424 36.0282C103.061 33.463 97.7055 30.7862 93.2618 28.2977C88.954 25.8853 85.0899 23.43 83.0698 21.2657C80.1375 18.124 70.7684 10.8457 60.6703 8.0769C55.6801 6.70866 50.8064 6.52226 46.5156 8.17213C42.3117 9.78871 38.2106 13.3425 35.0111 20.3696C32.2911 26.73 26.6076 43.1289 25.532 57.829C24.1497 76.7198 25.5401 110.723 25.5401 137.002Z" fill="#2B292B"/>
<path d="M29.2551 55.2694C32.5059 38.5515 44.8586 7.25175 68.2637 15.7965C97.5201 26.4774 106.808 42.2666 123.061 55.2694C139.315 68.2723 167.178 84.9903 187.611 93.3493C193.313 95.6819 198.87 98.0517 204.212 100.366C190.035 117.478 182.181 142.829 218.725 163.472C191.808 185.46 174.924 206.35 183.896 225.7C192.869 245.049 205.857 243.403 215.727 254.837C210.96 265.804 178.904 307.104 219.447 318.205C210.562 322.958 203.67 326.569 201.079 327.865C191.791 332.509 103.557 378.019 68.2637 395.666C53.1672 403.214 35.2922 402.167 29.2551 367.803C23.2181 333.438 29.2551 304.646 29.2551 289.785C29.2551 274.925 33.4346 249.384 29.2551 226.629C25.0757 203.874 25.54 160.221 29.2551 143.968C32.9702 127.714 23.2181 81.2751 29.2551 55.2694ZM305.765 267.271C297.98 272.075 291.717 276.111 288.384 278.64C281.581 283.801 261.743 295.122 242.578 305.663L246.124 303.253L298.6 271.21C300.501 270.149 303.029 268.756 305.765 267.271ZM329.752 163.761C358.049 181.298 391.942 203.594 391.942 208.053C391.942 213.626 395.657 212.233 379.404 222.913C370.426 228.813 347.704 242.081 326.892 254.499C330.853 247.738 335.687 233.574 338.073 225.7L329.752 163.761ZM267.441 128.225C280.126 134.658 295.039 142.809 310.21 151.862C314.718 154.553 319.819 157.641 325.215 160.959C309.122 151.966 285.801 138.826 267.441 128.225Z" fill="#FFC300"/>
<path d="M51.4354 13.037C56.731 10.6906 62.7641 10.3283 69.3787 12.7431C98.7599 23.4696 116.327 31.9732 132.987 45.301C148.87 58.007 173.134 69.941 193.486 78.2671C204.067 82.5954 213.658 88.9245 222.048 95.0041C230.606 101.205 237.613 106.9 243.627 110.537C253.536 116.528 263.334 121.831 274.324 127.821C285.302 133.803 297.422 140.446 311.875 149.071C326.303 157.681 346.783 170.364 363.674 181.605C372.111 187.22 379.705 192.51 385.21 196.768C387.952 198.889 390.251 200.811 391.892 202.427C392.707 203.23 393.438 204.034 393.989 204.809C394.438 205.44 395.193 206.619 395.193 208.054C395.193 209.213 395.354 209.599 395.498 210.853C395.648 212.158 395.583 213.677 394.487 215.35C393.6 216.704 392.132 217.993 390.175 219.466C388.146 220.994 385.252 222.96 381.189 225.63C372.981 231.024 353.483 242.465 334.51 253.745C315.372 265.122 296.896 276.263 290.348 281.23C283.379 286.517 263.616 297.796 244.731 308.191C225.741 318.645 207.236 328.421 202.533 330.773C198.029 333.024 174.915 347.112 147.652 363.312C120.563 379.409 89.5783 397.466 69.7179 407.397C61.9329 411.289 52.5316 413.935 44.046 410.177C35.4436 406.366 29.1392 396.61 26.0537 379.046C22.9735 361.513 22.9858 342.774 23.7444 326.668C24.1242 318.604 24.6938 311.157 25.1648 304.839C25.6398 298.467 26.0047 293.352 26.0047 289.786C26.0047 282.291 27.068 271.787 27.5756 261.015C28.0943 250.007 28.0805 238.226 26.0582 227.216C23.9154 215.549 22.9859 198.717 23.0442 182.849C23.1024 167.025 24.1435 151.743 26.0863 143.243C26.9072 139.652 27.0236 134.099 26.7257 127.046C26.431 120.065 25.7559 112.015 25.1421 103.51C23.9326 86.7494 22.9421 68.1523 26.0772 54.5879C27.7605 45.9704 31.7872 33.4974 38.5704 24.1505C41.9831 19.4479 46.2359 15.3407 51.4354 13.037ZM32.5061 289.786C32.5061 293.649 32.1163 299.041 31.6481 305.323C31.1757 311.659 30.6134 319.015 30.2386 326.973C29.4879 342.91 29.5003 361.09 32.4571 377.922C35.4087 394.722 41.0605 401.744 46.679 404.232C52.4141 406.772 59.4988 405.237 66.81 401.582C86.4226 391.776 117.202 373.843 144.33 357.723C171.284 341.707 194.841 327.35 199.625 324.958C204.21 322.665 222.625 312.938 241.597 302.495C260.676 291.992 279.922 280.979 286.419 276.05C293.34 270.8 312.245 259.418 331.187 248.157C350.294 236.798 369.573 225.485 377.619 220.198C381.682 217.527 384.419 215.662 386.264 214.272C388.181 212.829 388.833 212.116 389.049 211.787C389.056 211.776 389.077 211.93 389.039 211.595C388.999 211.252 388.756 210.007 388.703 208.593C388.699 208.588 388.696 208.582 388.692 208.577C388.453 208.241 388.019 207.738 387.33 207.06C385.964 205.714 383.902 203.976 381.232 201.91C375.91 197.795 368.469 192.606 360.072 187.017C343.294 175.852 322.908 163.226 308.544 154.654C294.205 146.097 282.178 139.505 271.213 133.529C260.261 127.561 250.322 122.183 240.263 116.1C233.951 112.284 226.33 106.137 218.233 100.269C209.968 94.2806 200.878 88.3149 191.025 84.2842C170.511 75.8924 145.55 63.6773 128.926 50.3776C113.078 37.6997 96.2807 29.4853 67.1493 18.85C62.0613 16.9925 57.7731 17.3391 54.0684 18.9806C50.2675 20.6647 46.8401 23.8252 43.8328 27.969C37.7919 36.293 34.0209 47.792 32.4462 55.8904L32.4354 55.9475L32.4218 56.0046C29.5346 68.4414 30.4003 86.0403 31.6272 103.042C32.2325 111.429 32.9215 119.662 33.2217 126.772C33.5189 133.81 33.461 140.157 32.4245 144.692C30.6522 152.446 29.6036 167.117 29.5456 182.872C29.4879 198.582 30.416 214.953 32.4526 226.041C34.6098 237.786 34.596 250.154 34.0698 261.32C33.5325 272.723 32.5061 282.42 32.5061 289.786Z" fill="#2B292B"/>
<path d="M213.297 89.2281C204.726 97.2028 194.662 110.45 191.767 124.279C190.336 131.111 190.672 137.984 193.685 144.487C196.701 150.995 202.544 157.448 212.682 163.175C213.617 163.703 214.23 164.658 214.322 165.728C214.414 166.798 213.971 167.843 213.139 168.522C199.612 179.572 188.983 188.758 182.775 197.466C179.706 201.771 177.846 205.793 177.195 209.704C176.553 213.562 177.051 217.519 179.039 221.806C183.166 230.705 188.887 235.345 194.995 239.232C200.945 243.017 208.194 246.515 213.544 252.713C214.695 254.046 214.575 256.055 213.272 257.241C210.41 259.846 206.619 264.421 203.256 270.008C199.894 275.593 197.09 281.973 196.003 288.161C194.92 294.332 195.579 300.043 198.755 304.707C201.931 309.371 208.007 313.552 218.933 315.862L217.589 322.222C205.635 319.695 197.803 314.86 193.381 308.366C188.959 301.871 188.328 294.278 189.6 287.037C190.868 279.812 194.065 272.67 197.686 266.656C200.502 261.977 203.655 257.852 206.526 254.785C202.367 250.898 197.326 248.42 191.505 244.716C184.828 240.468 177.987 234.993 173.141 224.542C170.643 219.155 169.909 213.876 170.781 208.637C171.644 203.45 174.045 198.512 177.481 193.692C183.673 185.006 193.637 176.17 205.474 166.404C196.734 160.717 191.026 154.212 187.786 147.219C184.072 139.203 183.746 130.86 185.403 122.946C188.683 107.281 199.794 92.9112 208.869 84.4681L213.297 89.2281Z" fill="#2B292B"/>
<path d="M217.941 91.0857C209.331 99.0969 200.094 111.202 197.932 123.823C196.868 130.034 197.516 136.348 200.779 142.479C204.06 148.643 210.123 154.878 220.325 160.641C221.259 161.169 221.873 162.125 221.965 163.195C222.056 164.264 221.613 165.311 220.782 165.99C207.394 176.926 196.785 187.371 190.612 197.293C184.487 207.137 182.983 216.003 186.845 224.332C190.996 233.283 195.966 237.271 201.175 240.466C206.338 243.633 212.816 246.49 218.188 252.713C219.004 253.658 219.206 254.988 218.709 256.133C218.006 257.749 216.848 259.782 215.579 261.953C214.271 264.192 212.783 266.682 211.259 269.411C208.205 274.88 205.197 280.994 203.706 286.934C202.213 292.88 202.352 298.187 204.959 302.472C207.558 306.743 213.073 310.757 224.042 313.076L222.697 319.436C210.786 316.917 203.294 312.243 199.405 305.851C195.524 299.473 195.695 292.142 197.399 285.351C199.106 278.554 202.46 271.832 205.582 266.241C207.147 263.439 208.699 260.842 209.966 258.673C210.7 257.416 211.321 256.328 211.818 255.405C207.705 251.3 203.177 249.321 197.776 246.008C191.78 242.331 185.769 237.467 180.947 227.068C175.837 216.048 178.289 204.794 185.092 193.859C191.248 183.964 201.172 173.955 213.123 163.894C204.396 158.303 198.538 152.106 195.039 145.533C191.013 137.968 190.249 130.164 191.524 122.726C194.038 108.049 204.478 94.7322 213.513 86.3257L217.941 91.0857Z" fill="#2B292B"/>
<path d="M305.102 213.162C307.702 192.357 319.188 168.89 324.606 159.757L395.657 207.589L390.085 218.27L318.569 258.672C312.996 252.17 302.501 233.966 305.102 213.162Z" fill="#2B292B"/>
</svg>
